<?xml version="1.0" encoding="UTF-8"?>
<svg version="1.1" xmlns="http://www.w3.org/2000/svg" width="512" height="512">
<path d="M0 0 C0.97243652 -0.00298096 1.94487305 -0.00596191 2.94677734 -0.0090332 C3.98398926 0.01328369 5.02120117 0.03560059 6.08984375 0.05859375 C7.16314941 0.07253174 8.23645508 0.08646973 9.34228516 0.10083008 C43.75813914 0.88474959 76.81115724 13.68322474 104.02734375 34.49609375 C105.42726562 35.55763672 105.42726562 35.55763672 106.85546875 36.640625 C112.47727128 41.07067114 117.63224561 45.90479327 122.71484375 50.93359375 C123.34003906 51.54944336 123.96523437 52.16529297 124.609375 52.79980469 C129.02734375 57.24996716 129.02734375 57.24996716 129.02734375 59.49609375 C129.85645264 59.29975342 130.68556152 59.10341309 131.53979492 58.90112305 C154.90285059 53.40326823 178.16324464 48.41483889 202.28515625 48.29296875 C203.22316071 48.28595444 204.16116516 48.27894012 205.12759399 48.27171326 C208.13589347 48.25432164 211.14399585 48.24786125 214.15234375 48.24609375 C215.69734558 48.24508163 215.69734558 48.24508163 217.27355957 48.24404907 C232.74356077 48.26014924 247.7651499 48.76121997 263.02734375 51.49609375 C264.12965332 51.68896973 265.23196289 51.8818457 266.36767578 52.08056641 C278.03062934 54.15076908 289.55826295 56.52843563 301.02734375 59.49609375 C301.29724121 58.903125 301.56713867 58.31015625 301.84521484 57.69921875 C315.29976049 32.6240804 353.51318912 14.86976776 379.38671875 6.8125 C393.80702795 2.57213962 408.26110273 0.32060325 423.27734375 0.18359375 C424.35242188 0.15458984 425.4275 0.12558594 426.53515625 0.09570312 C428.08589844 0.08313477 428.08589844 0.08313477 429.66796875 0.0703125 C430.60157227 0.05572998 431.53517578 0.04114746 432.49707031 0.02612305 C435.88337072 0.65509143 437.01792527 1.7239235 439.02734375 4.49609375 C439.52905273 7.2121582 439.52905273 7.2121582 439.5234375 10.359375 C439.52790894 12.13054687 439.52790894 12.13054687 439.5324707 13.9375 C439.51015381 15.21496094 439.48783691 16.49242188 439.46484375 17.80859375 C439.45461685 18.79907715 439.45461685 18.79907715 439.44418335 19.80957031 C439.10951862 51.42236965 434.84751579 83.28066639 426.359375 113.73828125 C426.02921387 114.94822754 426.02921387 114.94822754 425.69238281 116.18261719 C425.25346828 117.7094726 424.77149246 119.22467902 424.24511719 120.72363281 C423.42312329 123.04252752 423.42312329 123.04252752 423.02734375 126.49609375 C424.7577089 129.29060396 424.7577089 129.29060396 427.65234375 131.49609375 C439.4173619 142.07931564 447.9443102 155.44282437 455.02734375 169.49609375 C455.37780762 170.18896484 455.72827148 170.88183594 456.08935547 171.59570312 C465.80425324 191.17778383 471.02510763 212.22825686 471.40234375 234.05859375 C471.4286084 235.02410156 471.45487305 235.98960937 471.48193359 236.984375 C471.49743216 243.7369797 471.49743216 243.7369797 469.39453125 247.1328125 C466.33238256 248.89632717 464.28998387 248.89881723 460.77734375 248.74609375 C459.6996875 248.71 458.62203125 248.67390625 457.51171875 248.63671875 C456.691875 248.5903125 455.87203125 248.54390625 455.02734375 248.49609375 C455.46304687 249.4190625 455.89875 250.34203125 456.34765625 251.29296875 C466.34900804 272.98516622 471.2136034 294.5499697 471.46484375 318.37109375 C471.47715027 319.04146667 471.48945679 319.7118396 471.50213623 320.40252686 C471.53171031 322.32673083 471.52815606 324.2513558 471.5234375 326.17578125 C471.52529053 327.29710449 471.52714355 328.41842773 471.52905273 329.57373047 C470.91382702 333.15730798 469.91459208 334.34283692 467.02734375 336.49609375 C463.57421875 336.88671875 463.57421875 336.88671875 459.77734375 336.74609375 C458.5140625 336.71 457.25078125 336.67390625 455.94921875 336.63671875 C454.985 336.5903125 454.02078125 336.54390625 453.02734375 336.49609375 C453.44306641 337.96369141 453.44306641 337.96369141 453.8671875 339.4609375 C457.72797955 353.32436877 457.72797955 353.32436877 458.02734375 360.49609375 C458.06730469 361.31980469 458.10726563 362.14351563 458.1484375 362.9921875 C458.38653041 372.64195297 457.99663506 383.0220126 453.02734375 391.49609375 C445.20069586 395.4094177 434.30953634 390.66364868 426.55859375 388.453125 C425.01945313 388.03740234 425.01945313 388.03740234 423.44921875 387.61328125 C422.5272168 387.35144043 421.60521484 387.08959961 420.65527344 386.81982422 C416.02508808 386.24943907 412.59785491 388.634284 408.71875 390.9296875 C407.90140381 391.40792969 407.08405762 391.88617188 406.24194336 392.37890625 C404.92915405 393.14847656 404.92915405 393.14847656 403.58984375 393.93359375 C366.05592273 415.58464366 325.31823048 431.88004941 283.02734375 441.49609375 C282.20524414 441.68606934 281.38314453 441.87604492 280.53613281 442.07177734 C274.72746155 443.3913035 268.89901874 444.49706255 263.02734375 445.49609375 C262.18300781 445.6470752 261.33867187 445.79805664 260.46875 445.95361328 C228.19796118 451.50989509 193.15879601 450.42616661 161.02734375 444.49609375 C159.8892627 444.28710449 158.75118164 444.07811523 157.57861328 443.86279297 C118.71476659 436.46041954 81.26171716 422.02087804 45.83984375 404.62109375 C45.04046387 404.23042725 44.24108398 403.83976074 43.41748047 403.43725586 C38.9117261 401.16623591 34.70941058 398.6716025 30.53125 395.83984375 C19.47520332 387.93453506 19.47520332 387.93453506 6.47705078 386.93701172 C3.57690841 387.71245411 0.79298849 388.64435697 -1.99804688 389.74804688 C-6.70666203 391.53182492 -11.67420118 392.77896866 -16.72265625 392.87109375 C-17.439375 392.89945312 -18.15609375 392.9278125 -18.89453125 392.95703125 C-22.00096139 392.26801103 -23.06569242 391.02524493 -24.97265625 388.49609375 C-25.75011484 385.92003693 -26.30223131 383.62661969 -26.72265625 380.99609375 C-26.84406982 380.28340332 -26.9654834 379.57071289 -27.09057617 378.83642578 C-29.37398817 364.51247468 -27.70392113 350.18522015 -22.97265625 336.49609375 C-23.936875 336.5425 -24.90109375 336.58890625 -25.89453125 336.63671875 C-27.1578125 336.6728125 -28.42109375 336.70890625 -29.72265625 336.74609375 C-30.975625 336.7925 -32.22859375 336.83890625 -33.51953125 336.88671875 C-36.97265625 336.49609375 -36.97265625 336.49609375 -39.15527344 334.85791016 C-41.48490992 331.83038419 -41.48828092 330.11168746 -41.50390625 326.31640625 C-41.51228516 325.08873535 -41.52066406 323.86106445 -41.52929688 322.59619141 C-41.51060547 321.28440918 -41.49191406 319.97262695 -41.47265625 318.62109375 C-41.46645264 317.94826355 -41.46024902 317.27543335 -41.45385742 316.58221436 C-41.19936816 293.01608894 -36.06614033 269.44494985 -24.97265625 248.49609375 C-25.7925 248.5425 -26.61234375 248.58890625 -27.45703125 248.63671875 C-28.5346875 248.6728125 -29.61234375 248.70890625 -30.72265625 248.74609375 C-31.79 248.7925 -32.85734375 248.83890625 -33.95703125 248.88671875 C-36.97265625 248.49609375 -36.97265625 248.49609375 -39.33203125 247.09765625 C-41.871376 243.07098101 -41.5656332 239.28934514 -41.47265625 234.62109375 C-41.46057129 233.64946289 -41.44848633 232.67783203 -41.43603516 231.67675781 C-40.66686935 202.72815382 -30.39598404 172.68449323 -12.97265625 149.49609375 C-12.34423828 148.65208008 -12.34423828 148.65208008 -11.703125 147.79101562 C-5.96406514 140.12515325 0.05811335 133.09120902 7.02734375 126.49609375 C6.84413574 125.83109863 6.66092773 125.16610352 6.47216797 124.48095703 C-2.88801632 90.35540959 -8.90133486 55.81073078 -9.32211304 20.35165405 C-9.34715574 18.34862663 -9.38692903 16.34580068 -9.42700195 14.34301758 C-9.42917725 13.12122803 -9.43135254 11.89943848 -9.43359375 10.640625 C-9.44181152 9.55112549 -9.4500293 8.46162598 -9.45849609 7.33911133 C-8.51388741 1.81148913 -5.35394506 -0.01148808 0 0 Z " fill="#D7956F" transform="translate(40.97265625,63.50390625)"/>
<path d="M0 0 C0.97243652 -0.00298096 1.94487305 -0.00596191 2.94677734 -0.0090332 C3.98398926 0.01328369 5.02120117 0.03560059 6.08984375 0.05859375 C7.16314941 0.07253174 8.23645508 0.08646973 9.34228516 0.10083008 C43.75813914 0.88474959 76.81115724 13.68322474 104.02734375 34.49609375 C105.42726562 35.55763672 105.42726562 35.55763672 106.85546875 36.640625 C112.47727128 41.07067114 117.63224561 45.90479327 122.71484375 50.93359375 C123.34003906 51.54944336 123.96523437 52.16529297 124.609375 52.79980469 C129.02734375 57.24996716 129.02734375 57.24996716 129.02734375 59.49609375 C129.85645264 59.29975342 130.68556152 59.10341309 131.53979492 58.90112305 C154.90285059 53.40326823 178.16324464 48.41483889 202.28515625 48.29296875 C203.22316071 48.28595444 204.16116516 48.27894012 205.12759399 48.27171326 C208.13589347 48.25432164 211.14399585 48.24786125 214.15234375 48.24609375 C215.69734558 48.24508163 215.69734558 48.24508163 217.27355957 48.24404907 C232.74356077 48.26014924 247.7651499 48.76121997 263.02734375 51.49609375 C264.12965332 51.68896973 265.23196289 51.8818457 266.36767578 52.08056641 C278.03062934 54.15076908 289.55826295 56.52843563 301.02734375 59.49609375 C301.29724121 58.903125 301.56713867 58.31015625 301.84521484 57.69921875 C315.29976049 32.6240804 353.51318912 14.86976776 379.38671875 6.8125 C393.80702795 2.57213962 408.26110273 0.32060325 423.27734375 0.18359375 C424.35242188 0.15458984 425.4275 0.12558594 426.53515625 0.09570312 C428.08589844 0.08313477 428.08589844 0.08313477 429.66796875 0.0703125 C430.60157227 0.05572998 431.53517578 0.04114746 432.49707031 0.02612305 C435.88337072 0.65509143 437.01792527 1.7239235 439.02734375 4.49609375 C439.52905273 7.2121582 439.52905273 7.2121582 439.5234375 10.359375 C439.52790894 12.13054687 439.52790894 12.13054687 439.5324707 13.9375 C439.51015381 15.21496094 439.48783691 16.49242188 439.46484375 17.80859375 C439.45461685 18.79907715 439.45461685 18.79907715 439.44418335 19.80957031 C439.10951862 51.42236965 434.84751579 83.28066639 426.359375 113.73828125 C426.02921387 114.94822754 426.02921387 114.94822754 425.69238281 116.18261719 C425.25346828 117.7094726 424.77149246 119.22467902 424.24511719 120.72363281 C423.42312329 123.04252752 423.42312329 123.04252752 423.02734375 126.49609375 C424.7577089 129.29060396 424.7577089 129.29060396 427.65234375 131.49609375 C439.4173619 142.07931564 447.9443102 155.44282437 455.02734375 169.49609375 C455.37780762 170.18896484 455.72827148 170.88183594 456.08935547 171.59570312 C465.80425324 191.17778383 471.02510763 212.22825686 471.40234375 234.05859375 C471.4286084 235.02410156 471.45487305 235.98960937 471.48193359 236.984375 C471.49743216 243.7369797 471.49743216 243.7369797 469.39453125 247.1328125 C466.33238256 248.89632717 464.28998387 248.89881723 460.77734375 248.74609375 C459.6996875 248.71 458.62203125 248.67390625 457.51171875 248.63671875 C456.691875 248.5903125 455.87203125 248.54390625 455.02734375 248.49609375 C455.46304687 249.4190625 455.89875 250.34203125 456.34765625 251.29296875 C466.34900804 272.98516622 471.2136034 294.5499697 471.46484375 318.37109375 C471.47715027 319.04146667 471.48945679 319.7118396 471.50213623 320.40252686 C471.53171031 322.32673083 471.52815606 324.2513558 471.5234375 326.17578125 C471.52529053 327.29710449 471.52714355 328.41842773 471.52905273 329.57373047 C470.91382702 333.15730798 469.91459208 334.34283692 467.02734375 336.49609375 C463.57421875 336.88671875 463.57421875 336.88671875 459.77734375 336.74609375 C458.5140625 336.71 457.25078125 336.67390625 455.94921875 336.63671875 C454.985 336.5903125 454.02078125 336.54390625 453.02734375 336.49609375 C453.44306641 337.96369141 453.44306641 337.96369141 453.8671875 339.4609375 C457.72797955 353.32436877 457.72797955 353.32436877 458.02734375 360.49609375 C458.06730469 361.31980469 458.10726563 362.14351563 458.1484375 362.9921875 C458.38653041 372.64195297 457.99663506 383.0220126 453.02734375 391.49609375 C445.20069586 395.4094177 434.30953634 390.66364868 426.55859375 388.453125 C425.01945313 388.03740234 425.01945313 388.03740234 423.44921875 387.61328125 C422.5272168 387.35144043 421.60521484 387.08959961 420.65527344 386.81982422 C416.02508808 386.24943907 412.59785491 388.634284 408.71875 390.9296875 C407.90140381 391.40792969 407.08405762 391.88617188 406.24194336 392.37890625 C404.92915405 393.14847656 404.92915405 393.14847656 403.58984375 393.93359375 C366.05592273 415.58464366 325.31823048 431.88004941 283.02734375 441.49609375 C282.20524414 441.68606934 281.38314453 441.87604492 280.53613281 442.07177734 C274.72746155 443.3913035 268.89901874 444.49706255 263.02734375 445.49609375 C262.18300781 445.6470752 261.33867187 445.79805664 260.46875 445.95361328 C228.19796118 451.50989509 193.15879601 450.42616661 161.02734375 444.49609375 C159.8892627 444.28710449 158.75118164 444.07811523 157.57861328 443.86279297 C118.71476659 436.46041954 81.26171716 422.02087804 45.83984375 404.62109375 C45.04046387 404.23042725 44.24108398 403.83976074 43.41748047 403.43725586 C38.9117261 401.16623591 34.70941058 398.6716025 30.53125 395.83984375 C19.47520332 387.93453506 19.47520332 387.93453506 6.47705078 386.93701172 C3.57690841 387.71245411 0.79298849 388.64435697 -1.99804688 389.74804688 C-6.70666203 391.53182492 -11.67420118 392.77896866 -16.72265625 392.87109375 C-17.439375 392.89945312 -18.15609375 392.9278125 -18.89453125 392.95703125 C-22.00096139 392.26801103 -23.06569242 391.02524493 -24.97265625 388.49609375 C-25.75011484 385.92003693 -26.30223131 383.62661969 -26.72265625 380.99609375 C-26.84406982 380.28340332 -26.9654834 379.57071289 -27.09057617 378.83642578 C-29.37398817 364.51247468 -27.70392113 350.18522015 -22.97265625 336.49609375 C-23.936875 336.5425 -24.90109375 336.58890625 -25.89453125 336.63671875 C-27.1578125 336.6728125 -28.42109375 336.70890625 -29.72265625 336.74609375 C-30.975625 336.7925 -32.22859375 336.83890625 -33.51953125 336.88671875 C-36.97265625 336.49609375 -36.97265625 336.49609375 -39.15527344 334.85791016 C-41.48490992 331.83038419 -41.48828092 330.11168746 -41.50390625 326.31640625 C-41.51228516 325.08873535 -41.52066406 323.86106445 -41.52929688 322.59619141 C-41.51060547 321.28440918 -41.49191406 319.97262695 -41.47265625 318.62109375 C-41.46645264 317.94826355 -41.46024902 317.27543335 -41.45385742 316.58221436 C-41.19936816 293.01608894 -36.06614033 269.44494985 -24.97265625 248.49609375 C-25.7925 248.5425 -26.61234375 248.58890625 -27.45703125 248.63671875 C-28.5346875 248.6728125 -29.61234375 248.70890625 -30.72265625 248.74609375 C-31.79 248.7925 -32.85734375 248.83890625 -33.95703125 248.88671875 C-36.97265625 248.49609375 -36.97265625 248.49609375 -39.33203125 247.09765625 C-41.871376 243.07098101 -41.5656332 239.28934514 -41.47265625 234.62109375 C-41.46057129 233.64946289 -41.44848633 232.67783203 -41.43603516 231.67675781 C-40.66686935 202.72815382 -30.39598404 172.68449323 -12.97265625 149.49609375 C-12.34423828 148.65208008 -12.34423828 148.65208008 -11.703125 147.79101562 C-5.96406514 140.12515325 0.05811335 133.09120902 7.02734375 126.49609375 C6.84413574 125.83109863 6.66092773 125.16610352 6.47216797 124.48095703 C-2.88801632 90.35540959 -8.90133486 55.81073078 -9.32211304 20.35165405 C-9.34715574 18.34862663 -9.38692903 16.34580068 -9.42700195 14.34301758 C-9.42917725 13.12122803 -9.43135254 11.89943848 -9.43359375 10.640625 C-9.44181152 9.55112549 -9.4500293 8.46162598 -9.45849609 7.33911133 C-8.51388741 1.81148913 -5.35394506 -0.01148808 0 0 Z M183.79296875 66.1171875 C182.21902344 66.31344727 182.21902344 66.31344727 180.61328125 66.51367188 C178.96199219 66.7215332 178.96199219 66.7215332 177.27734375 66.93359375 C175.64925781 67.1356543 175.64925781 67.1356543 173.98828125 67.34179688 C172.93382812 67.47392578 171.879375 67.60605469 170.79296875 67.7421875 C169.83165039 67.86263428 168.87033203 67.98308105 167.87988281 68.10717773 C164.91746406 68.51107478 161.97397005 68.99054512 159.02734375 69.49609375 C159.0133252 71.24297485 159.0133252 71.24297485 158.99902344 73.02514648 C158.95889547 77.38099224 158.89307506 81.73614854 158.81982422 86.09155273 C158.79174611 87.97004279 158.77046665 89.84864809 158.75634766 91.72729492 C158.7347345 94.44118704 158.68799328 97.15371247 158.63671875 99.8671875 C158.63549011 100.6956871 158.63426147 101.52418671 158.63299561 102.37779236 C158.4609277 109.36003184 156.56765062 115.35868383 152.1328125 120.8359375 C145.69215312 126.20096741 139.90450248 128.02967535 131.51171875 127.80078125 C124.37353996 126.92534423 120.0556404 122.95650898 115.47265625 117.69140625 C112.49081421 113.16222996 111.77183448 108.56061487 111.61328125 103.22265625 C111.57460937 102.06894531 111.5359375 100.91523438 111.49609375 99.7265625 C111.4496875 97.94185547 111.4496875 97.94185547 111.40234375 96.12109375 C111.36367187 94.90808594 111.325 93.69507813 111.28515625 92.4453125 C111.19120589 89.46238854 111.10553568 86.4794655 111.02734375 83.49609375 C107.1303785 84.0475078 103.76161255 84.8393093 100.1484375 86.39453125 C99.23819824 86.78543945 98.32795898 87.17634766 97.39013672 87.57910156 C96.42479004 88.00545898 95.45944336 88.43181641 94.46484375 88.87109375 C92.94334717 89.54156738 92.94334717 89.54156738 91.39111328 90.22558594 C69.07014365 100.19767777 47.34955458 112.11885607 29.02734375 128.49609375 C28.51268555 128.95193848 27.99802734 129.4077832 27.46777344 129.87744141 C-3.29013403 157.22080672 -22.08725149 191.23911225 -24.97265625 232.49609375 C-23.09320312 232.56957031 -23.09320312 232.56957031 -21.17578125 232.64453125 C-19.52471804 232.71957958 -17.87367744 232.79512652 -16.22265625 232.87109375 C-15.39765625 232.90203125 -14.57265625 232.93296875 -13.72265625 232.96484375 C-12.52382813 233.02285156 -12.52382813 233.02285156 -11.30078125 233.08203125 C-10.56762695 233.11345215 -9.83447266 233.14487305 -9.07910156 233.17724609 C-6.68476035 233.53967187 -5.03269772 234.23256423 -2.97265625 235.49609375 C-1.56273217 238.31594192 -1.71784624 240.36888001 -1.97265625 243.49609375 C-3.29296875 245.84765625 -3.29296875 245.84765625 -5.09765625 248.12109375 C-20.35363552 268.75972699 -24.23495364 295.41420513 -24.97265625 320.49609375 C-23.09320312 320.56957031 -23.09320312 320.56957031 -21.17578125 320.64453125 C-19.52471804 320.71957958 -17.87367744 320.79512652 -16.22265625 320.87109375 C-15.39765625 320.90203125 -14.57265625 320.93296875 -13.72265625 320.96484375 C-12.52382813 321.02285156 -12.52382813 321.02285156 -11.30078125 321.08203125 C-10.56762695 321.11345215 -9.83447266 321.14487305 -9.07910156 321.17724609 C-6.68476035 321.53967187 -5.03269772 322.23256423 -2.97265625 323.49609375 C-1.56257318 326.31625988 -1.74092898 328.36207735 -1.97265625 331.49609375 C-3.1796875 334.25 -3.1796875 334.25 -4.78515625 337.05859375 C-11.13046944 349.28419718 -11.38003448 361.05261229 -10.97265625 374.49609375 C-4.61815302 373.24907224 1.7106181 371.92245116 8.02734375 370.49609375 C8.10210937 369.76648438 8.176875 369.036875 8.25390625 368.28515625 C10.86651215 347.53799172 19.70290684 324.61776749 34.82421875 309.7265625 C36.26038296 308.54457807 36.26038296 308.54457807 36.02734375 306.49609375 C43.97702697 305.08621403 43.97702697 305.08621403 47.58984375 306.49609375 C49.81348683 309.58985804 49.42502321 311.75255341 49.02734375 315.49609375 C47.65199215 318.14941407 45.84684766 320.37164403 43.96484375 322.68359375 C42.94420212 324.01539068 41.92728948 325.35005337 40.9140625 326.6875 C40.41696777 327.3386377 39.91987305 327.98977539 39.40771484 328.66064453 C33.69358787 336.25859405 30.16490314 344.25224076 27.08984375 353.18359375 C26.78272461 354.06289551 26.47560547 354.94219727 26.15917969 355.84814453 C23.34425155 364.07146199 23.34425155 364.07146199 24.02734375 372.49609375 C26.63633318 375.20244836 29.71792487 376.76617024 33.02734375 378.49609375 C33.92259766 379.01187988 34.81785156 379.52766602 35.74023438 380.05908203 C89.63073175 411.02476238 152.04951741 432.78426766 214.65234375 432.68359375 C215.78583755 432.68218887 215.78583755 432.68218887 216.94223022 432.68075562 C228.10861804 432.65078963 238.99491571 432.29055105 250.02734375 430.49609375 C251.05504883 430.34011719 252.08275391 430.18414062 253.14160156 430.0234375 C297.94240097 423.18748619 339.88568671 408.42324099 380.02734375 387.49609375 C381.32841064 386.82199463 381.32841064 386.82199463 382.65576172 386.13427734 C390.7999793 381.91806783 390.7999793 381.91806783 398.90649414 377.63012695 C400.62708385 376.71011553 402.36055463 375.81422254 404.09765625 374.92578125 C406.1502306 373.67444335 406.1502306 373.67444335 406.7265625 371.6484375 C406.62469257 352.3950212 395.20089117 332.54457892 382.8984375 318.42578125 C380.60173847 314.82969717 380.54474758 312.68864793 381.02734375 308.49609375 C382.58984375 306.49609375 382.58984375 306.49609375 385.02734375 305.49609375 C388.1946572 305.18557282 389.24845974 305.17776492 392.02734375 306.49609375 C408.13190744 320.1965589 419.44395068 346.1519652 421.83984375 367.05859375 C421.93265625 368.76015625 421.93265625 368.76015625 422.02734375 370.49609375 C424.44243816 371.16895587 426.85914731 371.83455387 429.27734375 372.49609375 C429.95925781 372.686875 430.64117187 372.87765625 431.34375 373.07421875 C434.73335287 373.99566419 437.48513351 374.49609375 441.02734375 374.49609375 C441.64756941 359.45562146 440.26661056 347.11479464 433.015625 333.578125 C431.63934979 330.67869936 431.35491949 328.63407365 432.02734375 325.49609375 C433.7353872 322.95976622 435.09242544 321.67941955 438.13647461 321.08251953 C440.68847696 320.87754148 443.21753285 320.78768595 445.77734375 320.74609375 C446.66550781 320.71644531 447.55367188 320.68679688 448.46875 320.65625 C450.65503824 320.58572457 452.84027143 320.53294738 455.02734375 320.49609375 C453.31378592 294.57737797 450.70481388 266.79826085 433.78125 245.6953125 C432.02734375 243.49609375 432.02734375 243.49609375 431.52734375 240.43359375 C432.17321413 236.63910524 432.90526358 235.75250623 436.02734375 233.49609375 C439.26985876 232.8622271 442.4802124 232.79966605 445.77734375 232.74609375 C446.66550781 232.71644531 447.55367188 232.68679688 448.46875 232.65625 C450.65503824 232.58572457 452.84027143 232.53294738 455.02734375 232.49609375 C452.54715763 192.68483029 434.61429343 159.81802257 406.02734375 132.49609375 C402.45865052 129.37152779 398.7492649 126.43576373 395.02734375 123.49609375 C394.15722656 122.79742187 393.28710938 122.09875 392.390625 121.37890625 C374.5897651 107.51404248 342.4581813 83.49609375 319.02734375 83.49609375 C319.0133252 84.60682251 319.0133252 84.60682251 318.99902344 85.73999023 C318.94489774 89.13850027 318.86133263 92.53569577 318.77734375 95.93359375 C318.76316406 97.09826172 318.74898438 98.26292969 318.734375 99.46289062 C318.50097698 107.74852049 317.43705 114.28493077 312.1328125 120.8359375 C305.69215312 126.20096741 299.90450248 128.02967535 291.51171875 127.80078125 C284.37353996 126.92534423 280.0556404 122.95650898 275.47265625 117.69140625 C271.83769293 112.1701917 271.70066533 106.54483195 271.61328125 100.16015625 C271.58423203 98.84112808 271.58423203 98.84112808 271.55459595 97.49545288 C271.4951156 94.70409657 271.44854165 91.91269832 271.40234375 89.12109375 C271.3641349 87.22133681 271.32508149 85.32159665 271.28515625 83.421875 C271.18944018 78.78008525 271.10529335 74.13821446 271.02734375 69.49609375 C268.32035572 69.00809931 265.61211052 68.53071681 262.90234375 68.05859375 C261.79052734 67.8565332 261.79052734 67.8565332 260.65625 67.65039062 C253.48263812 66.41460034 246.28833378 65.93415564 239.02734375 65.49609375 C239.02369812 66.22779282 239.02005249 66.95949188 239.01629639 67.71336365 C238.97827528 74.64210656 238.92126368 81.57046742 238.84344101 88.4988699 C238.80409615 92.06005511 238.77184484 95.62099788 238.75634766 99.18237305 C238.73816884 103.2860394 238.68816164 107.38880227 238.63671875 111.4921875 C238.63549011 112.75816269 238.63426147 114.02413788 238.63299561 115.32847595 C238.49639992 123.64508141 237.4616592 130.25453715 232.1328125 136.8359375 C225.69215312 142.20096741 219.90450248 144.02967535 211.51171875 143.80078125 C204.37353996 142.92534423 200.0556404 138.95650898 195.47265625 133.69140625 C192.49470354 129.16813753 191.77601033 124.64075319 191.70849609 119.30712891 C191.67869156 117.50594101 191.67869156 117.50594101 191.64828491 115.66836548 C191.6309581 113.74617691 191.6309581 113.74617691 191.61328125 111.78515625 C191.59455164 110.44850493 191.57497691 109.1118652 191.55459595 107.77523804 C191.50345774 104.27369045 191.46373474 100.77210461 191.42645264 97.27038574 C191.38629748 93.69057901 191.33525792 90.1109289 191.28515625 86.53125 C191.18861421 79.51964594 191.10414058 72.50794113 191.02734375 65.49609375 C188.57444796 65.49609375 186.2281608 65.81350617 183.79296875 66.1171875 Z " fill="#010101" transform="translate(40.97265625,63.50390625)"/>
<path d="M0 0 C2.47532629 2.12572664 4.87848313 4.31126256 7.26953125 6.53125 C15.34317536 13.83102551 23.78147663 20.97709296 34 25 C34.79664063 25.31582031 35.59328125 25.63164062 36.4140625 25.95703125 C43.19789486 28.31522059 51.28684462 29.62893265 58.2265625 27.23046875 C60.35870779 25.75111684 61.04687654 24.38280866 62 22 C73.054256 24.0260212 83.41481931 27.29158636 94 31 C94 31.66 94 32.32 94 33 C80 37 80 37 76.16015625 37.9453125 C72.73798092 38.72824341 72.73798092 38.72824341 71 42 C70.54332937 45.5772533 70.56222569 47.33458305 72.5625 50.375 C76.57903498 53.05268999 80.67845048 52.24569155 85.28564453 51.38916016 C86.94249268 50.96836182 86.94249268 50.96836182 88.6328125 50.5390625 C89.85097656 50.23226562 91.06914062 49.92546875 92.32421875 49.609375 C93.57847656 49.28453125 94.83273437 48.9596875 96.125 48.625 C97.38699219 48.30789063 98.64898437 47.99078125 99.94921875 47.6640625 C106.43942251 46.06604978 106.43942251 46.06604978 112.74438477 43.88574219 C115.69187124 42.7283138 117.02269616 42.94811078 120 44 C122.82421875 45.9609375 122.82421875 45.9609375 125.6875 48.375 C126.64011719 49.16648437 127.59273438 49.95796875 128.57421875 50.7734375 C131 53 131 53 133 56 C132.67 56.33 132.34 56.66 132 57 C131.4742376 61.43854153 131.70622734 63.5266691 134.08984375 67.3671875 C135.02710854 68.54606206 135.97709841 69.71489686 136.9375 70.875 C148.39759562 85.64682179 157.67710594 102.89784654 157 122 C129.63941841 136.96881518 129.63941841 136.96881518 117 143 C116.2157666 143.37688965 115.4315332 143.7537793 114.62353516 144.14208984 C100.40144225 150.93208041 85.87269151 156.60212376 71.03759766 161.90673828 C69.07962883 162.61143081 67.12577037 163.32770379 65.17724609 164.05810547 C47.85229034 170.53597061 29.74988316 174.26862431 11.5625 177.375 C10.82346436 177.50219421 10.08442871 177.62938843 9.32299805 177.76043701 C-4.83901988 180.17558235 -18.76664056 181.23629966 -33.125 181.25 C-33.86478088 181.25100708 -34.60456177 181.25201416 -35.36676025 181.25305176 C-56.29354602 181.23395746 -76.59335241 178.5653447 -97 174 C-98.40096453 173.7001602 -99.80200411 173.40067078 -101.203125 173.1015625 C-141.74886274 164.22887256 -182.37018751 147.30527463 -218 126 C-218.70350586 125.6277832 -219.40701172 125.25556641 -220.13183594 124.87207031 C-222.71835952 123.35583235 -224.72058239 122.02987913 -225.53149414 119.04101562 C-225.77282213 113.05976396 -223.9930935 107.47184983 -222.0625 101.875 C-221.59432861 100.50130249 -221.59432861 100.50130249 -221.11669922 99.09985352 C-217.63994877 89.35250484 -212.79189282 80.80196423 -206.42578125 72.66015625 C-206.00925293 72.12592041 -205.59272461 71.59168457 -205.16357422 71.04125977 C-204.01797638 69.60116436 -202.83636128 68.18992727 -201.65234375 66.78125 C-199.57784667 63.28942512 -199.70560423 61.00004411 -200 57 C-200 56.01 -200 55.02 -200 54 C-197.69921875 51.80859375 -197.69921875 51.80859375 -194.6875 49.4375 C-193.70136719 48.65246094 -192.71523437 47.86742187 -191.69921875 47.05859375 C-186.35390571 42.9819223 -186.35390571 42.9819223 -184.01171875 43.1015625 C-175.48969254 45.02080874 -167.12814848 47.48191994 -158.75390625 49.9609375 C-152.39034392 51.72814335 -147.49602008 52.46684324 -141 51 C-138.68667514 47.53001271 -138.66042437 46.07490752 -139 42 C-141.4840443 38.27393355 -142.8968976 38.14903282 -147.125 36.9375 C-148.28773438 36.59847656 -149.45046875 36.25945312 -150.6484375 35.91015625 C-153.34153973 35.17881264 -156.03163923 34.50269422 -158.75 33.875 C-159.8225 33.58625 -160.895 33.2975 -162 33 C-162.33 32.34 -162.66 31.68 -163 31 C-138.00015088 22.33992154 -138.00015088 22.33992154 -130 23 C-129.319375 23.825 -128.63875 24.65 -127.9375 25.5 C-123.98867164 28.86070499 -121.37462315 28.64760559 -116.31640625 28.41796875 C-99.50928953 26.29975734 -87.89782701 17.4339607 -75.71582031 6.53173828 C-54.1330586 -12.73551371 -24.3473283 -18.97438394 0 0 Z " fill="#F4EEE3" transform="translate(290,315)"/>
<path d="M0 0 C1.56911133 -0.01160156 1.56911133 -0.01160156 3.16992188 -0.0234375 C13.99210269 0.003771 23.26275543 2.34632577 32.3125 8.4375 C38.36034801 14.6227991 41.16208929 21.3650424 41.375 29.9375 C41.26878237 37.88451029 39.04499647 43.35069539 33.8125 49.3125 C27.42950104 55.34425234 18.33204626 59.49348458 10.0625 62.25 C10.0625 74.13 10.0625 86.01 10.0625 98.25 C15.5075 97.26 15.5075 97.26 21.0625 96.25 C28.82742296 95.74375382 36.69520399 95.48905217 44.0625 98.25 C44.98417969 98.59160156 45.90585937 98.93320312 46.85546875 99.28515625 C51.95908229 101.29684676 56.66718802 103.51452677 61.3125 106.4375 C66.54637613 109.6858263 71.06583438 110.84432113 77.12109375 111.6640625 C78.19488281 111.81617188 79.26867187 111.96828125 80.375 112.125 C81.38175781 112.24617188 82.38851562 112.36734375 83.42578125 112.4921875 C86.0625 113.25 86.0625 113.25 87.89453125 115.1328125 C89.49820481 118.03980605 89.47158746 119.97730035 89.0625 123.25 C87.28265595 126.3859157 86.53941793 127.09102736 83.0625 128.25 C69.48900886 129.8025235 58.197158 124.76326171 46.88671875 117.83203125 C37.93202699 112.81591761 27.11523349 111.57887038 17.14453125 113.94140625 C11.48023688 115.85080873 6.64696667 118.62700423 1.60546875 121.79296875 C-10.3466461 128.64110829 -24.93807214 130.03398883 -38.375 127.63671875 C-45.11120869 125.76279795 -50.82902372 122.71218976 -56.76904297 119.11669922 C-63.15162507 115.3441214 -69.56735924 113.97140114 -76.80078125 112.77734375 C-78.13689453 112.54724609 -78.13689453 112.54724609 -79.5 112.3125 C-80.28503906 112.20035156 -81.07007813 112.08820313 -81.87890625 111.97265625 C-84.61945084 111.01060549 -85.47601341 109.7176814 -86.9375 107.25 C-87.5981452 103.36870948 -87.24225477 101.75066854 -85.1875 98.375 C-79.38329835 94.57994508 -73.35180216 95.57468962 -66.7578125 96.87890625 C-59.82367106 98.7692651 -54.01391533 101.74974137 -47.88720703 105.37890625 C-33.92703362 113.6215359 -22.66733716 111.87996242 -6.9375 108.25 C-6.9375 93.07 -6.9375 77.89 -6.9375 62.25 C-9.9075 61.26 -12.8775 60.27 -15.9375 59.25 C-24.47040132 55.59113464 -33.25181121 49.33039584 -37.5625 40.9375 C-40.54885197 32.77480462 -39.79095109 24.30747736 -36.1875 16.5 C-31.42345551 7.92471992 -24.91301813 4.43190039 -15.8671875 1.12890625 C-10.67530953 -0.29012741 -5.34085285 -0.0393433 0 0 Z " fill="#030303" transform="translate(254.9375,311.75)"/>
<path d="M0 0 C2.6192182 2.20996536 2.92701746 3.57122759 3.5 6.9375 C2.98990397 10.06183816 2.33746195 11.63943485 -0.0234375 13.765625 C-4.61791646 16.63490435 -9.90132728 18.24569826 -15 20 C-14.7834375 21.85625 -14.7834375 21.85625 -14.5625 23.75 C-14.48128906 24.44609375 -14.40007812 25.1421875 -14.31640625 25.859375 C-14.04677382 27.9792957 -14.04677382 27.9792957 -13.4765625 29.9140625 C-10.55261336 42.71233167 -14.64189164 55.04375842 -21 66 C-25.16245691 72.52960492 -31.76999823 76.53941469 -39 79 C-48.80233504 80.31714544 -55.68230985 77.83198435 -63.55859375 72.15625 C-69.70899431 66.72421623 -75.47160833 57.29266442 -76.171875 48.953125 C-76.18509086 47.30114248 -76.10305114 45.64881818 -76 44 C-76.86625 44.495 -77.7325 44.99 -78.625 45.5 C-82.23584826 47.10482145 -84.11710972 47.66091749 -88 47 C-91.32274404 44.54405875 -92.77618008 43.0743356 -93.625 39 C-92.78721441 34.97862915 -91.06727679 33.68330603 -88 31 C-85.15454102 29.52124023 -85.15454102 29.52124023 -82.00390625 28.30859375 C-80.82038574 27.84485352 -79.63686523 27.38111328 -78.41748047 26.90332031 C-77.13253365 26.41459082 -75.84753888 25.92598737 -74.5625 25.4375 C-73.22488321 24.9177286 -71.8878147 24.39654425 -70.55126953 23.87402344 C-67.7685198 22.78734912 -64.9835004 21.70681275 -62.19677734 20.63037109 C-56.20143323 18.30868123 -50.23775012 15.90852317 -44.27249146 13.51086426 C-42.38348162 12.753401 -40.49273118 12.00046427 -38.60131836 11.24902344 C-33.02733854 9.03141459 -27.46957103 6.79107294 -21.953125 4.43359375 C-21.04256348 4.05041992 -20.13200195 3.66724609 -19.19384766 3.27246094 C-17.55153767 2.57882612 -15.91504593 1.87114126 -14.28662109 1.14550781 C-9.04691158 -1.04873032 -5.57233624 -1.25043711 0 0 Z " fill="#030201" transform="translate(205,225)"/>
<path d="M0 0 C3.61455656 0.79203647 6.96250657 2.07938598 10.38599586 3.46560097 C11.16263084 3.77143608 11.93926582 4.07727119 12.7394352 4.39237404 C15.28269112 5.3970263 17.82016843 6.41539997 20.35743141 7.43508339 C22.13223975 8.14199837 23.90724188 8.848427 25.68242836 9.55439186 C29.39086356 11.03183165 33.09638006 12.51631767 36.80005836 14.00564003 C41.54673756 15.91350995 46.30096861 17.80169562 51.05763912 19.68449306 C54.71987813 21.13694332 58.37754699 22.60062514 62.03396606 24.06765747 C63.78558431 24.76866346 65.53869673 25.46594783 67.29330826 26.15942764 C69.74177353 27.1288791 72.1835782 28.11350815 74.62427711 29.10231972 C75.71133446 29.52722694 75.71133446 29.52722694 76.82035255 29.96071815 C80.62516602 31.52281478 83.20118582 32.78872135 85.18165016 36.47805214 C85.86399057 40.48680204 85.49748346 41.9992081 83.24415016 45.41555214 C79.4574286 47.96579319 77.63314963 47.73092493 73.26758766 47.06789589 C71.18165016 46.47805214 71.18165016 46.47805214 68.18165016 44.47805214 C68.28477516 45.38555214 68.38790016 46.29305214 68.49415016 47.22805214 C68.45632744 56.5702632 62.5900465 66.03001624 56.18165016 72.47805214 C48.45888365 78.47974497 40.93733108 80.66865828 31.18165016 79.47805214 C19.62103131 75.5652273 13.65222504 68.00333447 8.17383766 57.55617714 C3.43167408 47.51936489 4.20873349 34.88326049 7.18165016 24.47805214 C7.18165016 23.15805214 7.18165016 21.83805214 7.18165016 20.47805214 C6.13364235 20.09133339 5.08563454 19.70461464 4.00586891 19.30617714 C2.62671498 18.78078517 1.24782218 18.25470738 -0.13084984 17.72805214 C-0.82114281 17.47539589 -1.51143578 17.22273964 -2.22264671 16.96242714 C-6.14749516 15.4455775 -8.8081038 14.26688018 -10.81834984 10.47805214 C-11.50692432 6.43267707 -11.14475623 4.95746152 -8.81834984 1.54055214 C-5.38684974 -0.81860418 -3.99548046 -0.62920529 0 0 Z " fill="#030201" transform="translate(314.81834983825684,224.52194786071777)"/>
<path d="M0 0 C0.99 0.35191406 1.98 0.70382812 3 1.06640625 C13.58954474 5.15904918 22.17646329 10.9753283 30.46875 18.6640625 C41.34356689 28.69977315 50.42184125 35.04160298 65.19970703 36.83740234 C68.47904501 37.28407466 70.55068865 37.56841296 72.98046875 39.90234375 C74.39118551 42.80485295 74.39851102 44.81191188 74 48 C72.22015595 51.1359157 71.47691793 51.84102736 68 53 C53.48541141 54.66016536 40.77854561 49.20175508 29.58837891 40.33154297 C26.80729969 38.00015563 24.18941506 35.50206921 21.5625 33 C8.15094636 20.2727505 -5.94162627 13.2806462 -24.86328125 13.59912109 C-40.56678855 14.25103275 -51.79400648 20.63953715 -63.08203125 31.30859375 C-76.60670978 43.78316337 -91.18063809 53.96269605 -110.3828125 53.4140625 C-113 53 -113 53 -116.25 50.875 C-118.33592417 47.44812458 -118.81938858 45.9330652 -118 42 C-116.1875 39.1875 -116.1875 39.1875 -113 37 C-110.3132183 36.56169956 -107.67061415 36.42602379 -104.953125 36.2734375 C-92.33735416 35.10531057 -82.31811206 26.60963505 -73.8125 17.8125 C-55.45377957 -1.15563854 -25.0090623 -9.05124493 0 0 Z " fill="#040303" transform="translate(278,291)"/>
<path d="M0 0 C8.80288754 6.34043826 15.4186507 14.72648904 17.58203125 25.4921875 C18.92007691 37.90936834 17.85729499 48.88109459 10.39453125 59.2421875 C5.06940004 65.56224768 -0.35464545 70.01015238 -8.29296875 72.4921875 C-12.03877693 73.60633811 -12.03877693 73.60633811 -14.7109375 76.25390625 C-15.59924907 78.37991562 -15.59924907 78.37991562 -16.41796875 81.4921875 C-19.5473934 83.05689983 -23.02879098 83.18920708 -26.41796875 82.4921875 C-28.64453125 80.97265625 -28.64453125 80.97265625 -30.41796875 78.4921875 C-30.8189779 75.66153466 -30.97919774 73.30872091 -30.91796875 70.4921875 C-30.9334375 69.780625 -30.94890625 69.0690625 -30.96484375 68.3359375 C-30.9399804 65.00424909 -30.67111277 62.86524184 -28.78515625 60.0859375 C-25.87677044 58.12781636 -23.48863103 57.60260786 -20.04296875 56.9921875 C-11.83467257 55.27523964 -7.31256074 52.15427105 -2.41796875 45.4921875 C0.48102946 39.45091851 0.72195672 32.59455402 -1.0703125 26.14453125 C-3.6791066 20.33352636 -8.06510179 16.11310994 -13.77734375 13.3515625 C-19.82420853 11.38364793 -26.95209149 11.43248249 -32.79296875 14.0546875 C-38.54546015 17.4342762 -42.245963 22.2419431 -44.41796875 28.4921875 C-45.18009785 31.60055698 -45.8640205 34.71931877 -46.5390625 37.84765625 C-47.41796875 40.4921875 -47.41796875 40.4921875 -50.41796875 42.4921875 C-57.50565289 43.16720504 -57.50565289 43.16720504 -60.640625 40.84765625 C-64.04733567 36.33282871 -63.0096595 30.87840334 -62.41796875 25.4921875 C-60.0283054 14.70335236 -53.72631654 6.40345559 -44.8359375 0 C-31.48165159 -8.32755148 -13.35428591 -8.32755148 0 0 Z " fill="#000000" transform="translate(222.41796875,5.5078125)"/>
<path d="M0 0 C0.30540544 23.72265072 -3.85881248 46.96483296 -8.625 70.125 C-8.8310083 71.12644043 -9.0370166 72.12788086 -9.24926758 73.15966797 C-10.24863858 77.885514 -11.33167914 82.4542083 -13 87 C-17.49065067 85.50591436 -20.86632307 82.98508932 -24.5625 80.125 C-36.86494496 70.85469474 -50.36083367 63.13240808 -64 56 C-61.74718869 52.90238445 -59.33862614 50.34721222 -56.4375 47.875 C-52.95712618 44.90663648 -49.70844825 41.75646734 -46.5 38.5 C-42.16210457 34.11579252 -37.69233615 29.99950799 -33 26 C-31.91036798 25.04812171 -30.82193834 24.09486616 -29.734375 23.140625 C-22.97180041 17.21784135 -16.13768976 11.38937003 -9.1875 5.6875 C-8.49978516 5.11821777 -7.81207031 4.54893555 -7.10351562 3.96240234 C-2.23615805 0 -2.23615805 0 0 0 Z " fill="#E06660" transform="translate(463,90)"/>
<path d="M0 0 C13.140635 6.35925742 24.88013512 19.08225573 35.64453125 28.86328125 C37.23720096 30.30804133 38.83906856 31.74271619 40.44921875 33.16796875 C46.0365789 38.12379055 51.33754717 43.2783646 56.5546875 48.6171875 C58.61591385 50.62573075 60.65006832 52.34958287 63 54 C61.97355831 57.38121967 60.82474174 58.10348583 57.71875 59.9375 C56.31640227 60.63292515 54.90983092 61.31987347 53.5 62 C40.4930362 68.57324678 28.56149906 76.86997293 16.96875 85.671875 C15 87 15 87 13 87 C7.0226231 66.94355176 3.0275237 46.64582217 1.125 25.8125 C1.06351776 25.14599426 1.00203552 24.47948853 0.93869019 23.79278564 C0.22396749 15.84751122 -0.16732376 7.9767989 0 0 Z " fill="#E06760" transform="translate(49,90)"/>
<path d="M0 0 C-6.8758206 6.94975415 -14.06724933 13.49912394 -21.6875 19.625 C-25.66836557 22.83683472 -29.33554211 26.17328794 -32.85546875 29.8828125 C-34.75576323 31.75887736 -36.70623187 33.47670304 -38.734375 35.2109375 C-41.66603184 37.75087163 -44.38493715 40.38663728 -47.03515625 43.21875 C-47.69966797 43.92257813 -48.36417969 44.62640625 -49.04882812 45.3515625 C-50.40875407 46.80250191 -51.75487506 48.26648656 -53.08789062 49.7421875 C-58.06534883 54.94699316 -58.06534883 54.94699316 -62.375 55.19140625 C-66.93556638 53.69251321 -71.45557797 52.15869439 -75.9375 50.4375 C-76.81212891 50.10814453 -77.68675781 49.77878906 -78.58789062 49.43945312 C-80.72774809 48.63262162 -82.86491864 47.81936819 -85 47 C-84.15054176 42.53351292 -81.66096028 40.37910311 -78.375 37.4375 C-77.79234375 36.9122876 -77.2096875 36.3870752 -76.609375 35.84594727 C-56.83863398 18.3230764 -27.46681434 -0.7335351 0 0 Z " fill="#9E6E52" transform="translate(444,83)"/>
<path d="M0 0 C28.31084407 2.33997793 54.78782217 16.83572581 76 35 C76.96035156 35.80179688 77.92070312 36.60359375 78.91015625 37.4296875 C79.82667969 38.21601562 80.74320312 39.00234375 81.6875 39.8125 C82.51636719 40.52019531 83.34523438 41.22789063 84.19921875 41.95703125 C86 44 86 44 86 48 C82.61225614 49.3750544 79.21375553 50.7212544 75.8125 52.0625 C74.85279297 52.45244141 73.89308594 52.84238281 72.90429688 53.24414062 C71.97294922 53.60830078 71.04160156 53.97246094 70.08203125 54.34765625 C69.22843018 54.68804932 68.3748291 55.02844238 67.49536133 55.37915039 C64.48376057 56.12844114 62.9263258 56.03866147 60 55 C57.6315918 53.06982422 57.6315918 53.06982422 55.19921875 50.5546875 C54.30396484 49.64203125 53.40871094 48.729375 52.48632812 47.7890625 C51.55285839 46.8182148 50.61991838 45.84685749 49.6875 44.875 C43.6446806 38.65708831 37.59881784 32.62537389 31 27 C29.22429779 25.38032183 27.45291693 23.75588282 25.6875 22.125 C17.98311899 15.10261122 9.8930101 8.60031587 1.58203125 2.3125 C1.05996094 1.879375 0.53789063 1.44625 0 1 C0 0.67 0 0.34 0 0 Z " fill="#9F6F52" transform="translate(66,82)"/>
<path d="M0 0 C0.88115479 0.01015137 1.76230957 0.02030273 2.67016602 0.03076172 C10.17485924 0.20992438 17.61958134 0.44671036 23.25 6 C25.63745845 10.29742521 26.21381477 13.56458067 25.125 18.375 C21.82354499 22.91450063 17.00486403 25.71714061 12.125 28.375 C11.33738281 28.80683594 10.54976563 29.23867188 9.73828125 29.68359375 C5.17371696 31.86913866 2.02054408 32.79807954 -2.9375 31.4375 C-9.56744665 28.93563334 -19.55698071 25.01103857 -22.875 18.375 C-23.55395915 13.52529182 -23.40338473 10.26664923 -20.875 6 C-14.59632213 0.50615687 -8.01525014 -0.1326599 0 0 Z " fill="#DF665F" transform="translate(254.875,327.625)"/>
<path d="M0 0 C5.28 0 10.56 0 16 0 C16.06785817 7.47588274 16.12286332 14.95159632 16.15543652 22.42772198 C16.17107243 25.8994411 16.19227212 29.37093803 16.22631836 32.8425293 C16.26524063 36.83644712 16.27972629 40.83013263 16.29296875 44.82421875 C16.30845261 46.06709152 16.32393646 47.30996429 16.33988953 48.59049988 C16.34011612 49.75132584 16.34034271 50.91215179 16.34057617 52.1081543 C16.34723801 53.12741501 16.35389984 54.14667572 16.36076355 55.19682312 C15.93955673 58.46965163 14.93821767 60.35214597 13 63 C10.37121839 64.12276504 7.83903809 64.20605922 5 64 C1.73288174 62.32455474 1.172189 61.51656699 0 58 C-0.08852819 56.11343185 -0.11762222 54.22384476 -0.11352539 52.33520508 C-0.11344986 51.17422806 -0.11337433 50.01325104 -0.11329651 48.8170929 C-0.10813522 47.56389755 -0.10297394 46.31070221 -0.09765625 45.01953125 C-0.0962413 43.73640549 -0.09482635 42.45327972 -0.09336853 41.13127136 C-0.08955405 37.72329759 -0.07973291 34.31536657 -0.06866455 30.90740967 C-0.05842743 27.42851337 -0.05386598 23.94961015 -0.04882812 20.47070312 C-0.03810967 13.64711611 -0.02052152 6.82356451 0 0 Z " fill="#8E6E60" transform="translate(248,128)"/>
<path d="M0 0 C4.11455601 0.57897058 7.72008875 1.50677248 11.58203125 3.03125 C12.59587891 3.42957031 13.60972656 3.82789063 14.65429688 4.23828125 C15.69650391 4.65464844 16.73871094 5.07101562 17.8125 5.5 C18.87404297 5.91636719 19.93558594 6.33273437 21.02929688 6.76171875 C28.85657242 9.85657242 28.85657242 9.85657242 30 11 C30.07631414 18.69246482 28.36235646 25.86105867 23.4609375 31.89453125 C20.57298718 34.70995314 18.07340794 36.39476094 14 36.75 C9.93262084 36.3952867 7.44102692 34.70729985 4.5390625 31.91796875 C-0.31666346 25.86679757 -2.13948693 18.67737277 -2.1875 11.0625 C-2.20167969 10.04285156 -2.21585937 9.02320313 -2.23046875 7.97265625 C-1.99444914 4.92840333 -1.28252995 2.75262357 0 0 Z " fill="#8C6D5F" transform="translate(338,252)"/>
<path d="M0 0 C3.58540743 7.84218597 2.77381979 16.69741861 0.0546875 24.73828125 C-2.22547129 29.6279551 -5.55390147 33.03593432 -10 36 C-13.87368956 36.51649194 -16.45788959 36.81769161 -19.9375 34.97265625 C-25.50359244 30.64214036 -28.32488719 25.10216853 -29.4609375 18.19921875 C-29.71239649 15.79676599 -29.89924723 13.41302892 -30 11 C-23.75511124 8.0658111 -17.44909911 5.29717901 -11.0625 2.6875 C-10.4243335 2.42114746 -9.78616699 2.15479492 -9.12866211 1.88037109 C-5.79889062 0.53717364 -3.65985882 0 0 0 Z " fill="#8C6D5F" transform="translate(174,252)"/>
<path d="M0 0 C3.4272611 2.47929527 4.81303325 3.85482869 5.5 8.0625 C4.93631927 11.37412427 4.27110154 12.56702729 2 15 C-0.43359375 16.08984375 -0.43359375 16.08984375 -3.4375 16.9375 C-4.58347656 17.26105469 -5.72945313 17.58460938 -6.91015625 17.91796875 C-8.27303865 18.28015005 -9.63635801 18.64068919 -11 19 C-11.80937012 19.21865723 -12.61874023 19.43731445 -13.45263672 19.66259766 C-16.09010401 20.37175365 -18.7314169 21.06401461 -21.375 21.75 C-22.21861084 21.97292725 -23.06222168 22.19585449 -23.93139648 22.42553711 C-28.70481129 23.62774796 -33.03758995 24.44026452 -38 24 C-41.38121991 21.55401113 -42.76936783 20.10703441 -43.625 16 C-42.78180147 11.95264705 -41.13585022 10.64971511 -38 8 C-34.80200195 6.80566406 -34.80200195 6.80566406 -31.23828125 6.015625 C-29.31338867 5.57283203 -29.31338867 5.57283203 -27.34960938 5.12109375 C-26.00404615 4.83008154 -24.65834117 4.53972408 -23.3125 4.25 C-21.95468852 3.94574395 -20.59726077 3.63976998 -19.24023438 3.33203125 C-16.76550944 2.77101048 -14.28885661 2.21838296 -11.80981445 1.67675781 C-3.40883139 -0.34666082 -3.40883139 -0.34666082 0 0 Z " fill="#060605" transform="translate(403,344)"/>
<path d="M0 0 C3.4272611 2.47929527 4.81303325 3.85482869 5.5 8.0625 C4.93631927 11.37412427 4.27110154 12.56702729 2 15 C-0.43359375 16.08984375 -0.43359375 16.08984375 -3.4375 16.9375 C-4.58347656 17.26105469 -5.72945312 17.58460938 -6.91015625 17.91796875 C-8.27303865 18.28015005 -9.63635801 18.64068919 -11 19 C-11.80937012 19.21865723 -12.61874023 19.43731445 -13.45263672 19.66259766 C-16.09010401 20.37175365 -18.7314169 21.06401461 -21.375 21.75 C-22.21861084 21.97292725 -23.06222168 22.19585449 -23.93139648 22.42553711 C-28.70481129 23.62774796 -33.03758995 24.44026452 -38 24 C-41.38121991 21.55401113 -42.76936783 20.10703441 -43.625 16 C-42.78180147 11.95264705 -41.13585022 10.64971511 -38 8 C-34.80200195 6.80566406 -34.80200195 6.80566406 -31.23828125 6.015625 C-29.31338867 5.57283203 -29.31338867 5.57283203 -27.34960938 5.12109375 C-26.00404615 4.83008154 -24.65834117 4.53972408 -23.3125 4.25 C-21.95468852 3.94574395 -20.59726077 3.63976998 -19.24023438 3.33203125 C-16.76550944 2.77101048 -14.28885661 2.21838296 -11.80981445 1.67675781 C-3.40883139 -0.34666082 -3.40883139 -0.34666082 0 0 Z " fill="#060606" transform="translate(147,400)"/>
<path d="M0 0 C3.18359375 0.734375 3.18359375 0.734375 6.4375 1.75 C12.44282761 3.56960141 18.45935183 5.13977535 24.58178711 6.51660156 C28.52442903 7.45205884 31.69760319 8.63235983 35 11 C36.40457737 13.80915474 36.24895157 15.88810534 36 19 C35.0625 21.3125 35.0625 21.3125 33 23 C25.0564596 25.15418045 17.89644264 22.82596839 10.21728516 20.62792969 C7.91602439 19.97621831 5.60625385 19.36534192 3.29296875 18.7578125 C1.75737316 18.34015365 0.22220409 17.92092292 -1.3125 17.5 C-2.03566406 17.31099121 -2.75882812 17.12198242 -3.50390625 16.92724609 C-6.56927879 16.05341017 -8.68593165 15.31784472 -10.94921875 13.02734375 C-12.47378613 10.08589218 -12.53333951 8.26670447 -12 5 C-8.38747099 -0.0356465 -5.98170107 -0.38956457 0 0 Z " fill="#060606" transform="translate(372,400)"/>
<path d="M0 0 C3.18359375 0.734375 3.18359375 0.734375 6.4375 1.75 C12.44282761 3.56960141 18.45935183 5.13977535 24.58178711 6.51660156 C28.52442903 7.45205884 31.69760319 8.63235983 35 11 C36.40457737 13.80915474 36.24895157 15.88810534 36 19 C35.0625 21.3125 35.0625 21.3125 33 23 C25.0564596 25.15418045 17.89644264 22.82596839 10.21728516 20.62792969 C7.91602439 19.97621831 5.60625385 19.36534192 3.29296875 18.7578125 C1.75737316 18.34015365 0.22220409 17.92092292 -1.3125 17.5 C-2.03566406 17.31099121 -2.75882813 17.12198242 -3.50390625 16.92724609 C-6.56927879 16.05341017 -8.68593165 15.31784472 -10.94921875 13.02734375 C-12.47378613 10.08589218 -12.53333951 8.26670447 -12 5 C-8.38747099 -0.0356465 -5.98170107 -0.38956457 0 0 Z " fill="#060505" transform="translate(116,344)"/>
<path d="M0 0 C0.80232056 -0.00004028 1.60464111 -0.00008057 2.43127441 -0.00012207 C4.12239443 0.00522359 5.8135146 0.02276578 7.50439453 0.05175781 C10.08573724 0.09362006 12.66446867 0.09282315 15.24609375 0.0859375 C16.89324721 0.09643096 18.54038728 0.10936992 20.1875 0.125 C21.3392572 0.12530212 21.3392572 0.12530212 22.51428223 0.12561035 C27.02599744 0.22473308 30.01087988 0.78722566 33.59375 3.59375 C34.99832737 6.40290474 34.84270157 8.48185534 34.59375 11.59375 C32.81390595 14.7296657 32.07066793 15.43477736 28.59375 16.59375 C23.34255951 16.87064497 18.09179115 16.90714221 12.83398438 16.94384766 C11.09393955 16.96041642 9.35396305 16.98771889 7.61425781 17.02587891 C5.09925214 17.08071881 2.58583593 17.1025286 0.0703125 17.1171875 C-0.70379974 17.13985687 -1.47791199 17.16252625 -2.27548218 17.18588257 C-6.32165937 17.17010093 -8.17461313 16.77539113 -11.39697266 14.24853516 C-13.40625 11.59375 -13.40625 11.59375 -14.03125 8.59375 C-12.4447375 0.97849 -6.89259428 -0.14717412 0 0 Z " fill="#030202" transform="translate(373.40625,375.40625)"/>
<path d="M0 0 C0.80232056 -0.00004028 1.60464111 -0.00008057 2.43127441 -0.00012207 C4.12239443 0.00522359 5.8135146 0.02276578 7.50439453 0.05175781 C10.08573724 0.09362006 12.66446867 0.09282315 15.24609375 0.0859375 C16.89324721 0.09643096 18.54038728 0.10936992 20.1875 0.125 C21.3392572 0.12530212 21.3392572 0.12530212 22.51428223 0.12561035 C27.02599744 0.22473308 30.01087988 0.78722566 33.59375 3.59375 C34.99832737 6.40290474 34.84270157 8.48185534 34.59375 11.59375 C32.81390595 14.7296657 32.07066793 15.43477736 28.59375 16.59375 C23.34255951 16.87064497 18.09179115 16.90714221 12.83398438 16.94384766 C11.09393955 16.96041642 9.35396305 16.98771889 7.61425781 17.02587891 C5.09925214 17.08071881 2.58583593 17.1025286 0.0703125 17.1171875 C-0.70379974 17.13985687 -1.47791199 17.16252625 -2.27548218 17.18588257 C-6.32165937 17.17010093 -8.17461313 16.77539113 -11.39697266 14.24853516 C-13.40625 11.59375 -13.40625 11.59375 -14.03125 8.59375 C-12.4447375 0.97849 -6.89259428 -0.14717412 0 0 Z " fill="#030202" transform="translate(117.40625,375.40625)"/>
<path d="M0 0 C5.28 1.32 10.56 2.64 16 4 C16.06906299 8.03890609 16.1287351 12.07629805 16.16479492 16.11547852 C16.17983432 17.48794517 16.20027133 18.86036414 16.22631836 20.23266602 C16.26291221 22.21088656 16.27816698 24.18946514 16.29296875 26.16796875 C16.3086792 27.35672607 16.32438965 28.5454834 16.34057617 29.77026367 C15.96705478 33.31242456 15.12925438 35.17474316 13 38 C10.37121839 39.12276504 7.83903809 39.20605922 5 39 C1.73288174 37.32455474 1.172189 36.51656699 0 33 C-0.0846817 30.48631945 -0.11601885 28.00130626 -0.09765625 25.48828125 C-0.0962413 24.76005661 -0.09482635 24.03183197 -0.09336853 23.28153992 C-0.08777659 20.95848461 -0.07522562 18.63552612 -0.0625 16.3125 C-0.05748396 14.73632952 -0.05292123 13.16015752 -0.04882812 11.58398438 C-0.03866121 7.72258905 -0.01908436 3.86140275 0 0 Z " fill="#8D6D60" transform="translate(328,137)"/>
<path d="M0 0 C0.07436755 4.6081187 0.12870394 9.21588514 0.16479492 13.82446289 C0.17984622 15.39093107 0.20029207 16.95735736 0.22631836 18.52368164 C0.26286433 20.78021606 0.27976261 23.03619153 0.29296875 25.29296875 C0.30845261 25.98899704 0.32393646 26.68502533 0.33988953 27.40214539 C0.34139139 31.77866352 -0.30942621 34.52187113 -3 38 C-5.62878161 39.12276504 -8.16096191 39.20605922 -11 39 C-14.26711826 37.32455474 -14.827811 36.51656699 -16 33 C-16.08358958 30.78910055 -16.10731764 28.57573922 -16.09765625 26.36328125 C-16.09443359 25.06455078 -16.09121094 23.76582031 -16.08789062 22.42773438 C-16.07953531 21.05598892 -16.07107037 19.68424413 -16.0625 18.3125 C-16.05748335 16.92903805 -16.05292073 15.54557437 -16.04882812 14.16210938 C-16.03702529 10.77469605 -16.02056019 7.38736967 -16 4 C-13.52122809 3.33183525 -11.04201406 2.66539997 -8.5625 2 C-7.50192383 1.71382812 -7.50192383 1.71382812 -6.41992188 1.421875 C-1.11328125 0 -1.11328125 0 0 0 Z " fill="#8D6E60" transform="translate(184,137)"/>
<path d="M0 0 C5.28 0 10.56 0 16 0 C16 5.28 16 10.56 16 16 C10.72 16 5.44 16 0 16 C0 10.72 0 5.44 0 0 Z " fill="#000000" transform="translate(192,96)"/>
</svg>
