<?xml version="1.0" encoding="UTF-8"?>
<svg version="1.1" xmlns="http://www.w3.org/2000/svg" width="512" height="512">
<path d="M0 0 C1.98 0.495 1.98 0.495 4 1 C3.96390625 2.04414063 3.9278125 3.08828125 3.890625 4.1640625 C3.8960265 10.30286981 4.85934688 16.31324143 5.75 22.375 C5.90726562 23.54289062 6.06453125 24.71078125 6.2265625 25.9140625 C7.51025059 34.72213771 9.24189011 44.62806782 16 51 C20.78881834 53.81695197 24.53123865 54.46380068 29.91796875 53.65625 C33.16008602 52.63434437 34.88091874 50.56858334 37 48 C37.66 47.67 38.32 47.34 39 47 C38.73445313 48.00417969 38.46890625 49.00835937 38.1953125 50.04296875 C34.01143775 66.10983906 32.61079083 81.406849 32 98 C42.89 92.06 42.89 92.06 54 86 C55 89 55 89 53.8203125 91.63671875 C52.98113281 93.14685547 52.98113281 93.14685547 52.125 94.6875 C47.98149504 102.53790532 47.98149504 102.53790532 48.671875 111.16015625 C50.13260569 114.45877351 51.60971328 116.65190644 54.3125 119.0625 C58.05981365 120.36970244 60.20416967 120.15230564 64 119 C71.58813498 110.87071434 81.16977813 96.92928285 81.25 85.4375 C81.1675 84.303125 81.085 83.16875 81 82 C82.485 81.505 82.485 81.505 84 81 C91.21143517 93.30185999 89.86097556 117.4749539 87.41796875 130.9609375 C85.46928926 138.02601292 81.8566364 144.47292665 78.26196289 150.82836914 C74.71163962 157.1487499 70.84614572 164.58236533 72 172 C74.2758823 176.22481746 74.2758823 176.22481746 78 179 C83.62402608 179.65395652 86.36174015 177.85431375 91 175 C91.66 175 92.32 175 93 175 C91.67686395 180.2693313 90.20962196 185.46371718 88.4296875 190.59765625 C88.01614014 191.79479248 88.01614014 191.79479248 87.59423828 193.01611328 C87.03664713 194.61535824 86.4700692 196.21150147 85.89404297 197.80419922 C85.63510254 198.54814941 85.37616211 199.29209961 85.109375 200.05859375 C84.87186523 200.72173584 84.63435547 201.38487793 84.38964844 202.06811523 C83.93032771 204.34543663 84.28940913 205.81124605 85 208 C89.67020997 205.98728591 94.33646223 203.96561484 99 201.9375 C99.70674866 201.63019958 100.41349731 201.32289917 101.1416626 201.00628662 C113.897006 195.44919395 126.51120414 189.61931693 139.06640625 183.62475586 C139.71989044 183.31431839 140.37337463 183.00388092 141.04666138 182.68403625 C142.81373014 181.84417527 144.57857656 180.999643 146.34326172 180.15478516 C149 179 149 179 151 179 C150.41640925 187.31616812 148.26200586 195.01459326 146 203 C157.58769842 199.41998067 157.58769842 199.41998067 168.36328125 193.91796875 C170 193 170 193 172 193 C171.67 195.97 171.34 198.94 171 202 C189.6215552 197.40791895 189.6215552 197.40791895 207.625 190.875 C208.36210205 190.56304687 209.0992041 190.25109375 209.85864258 189.9296875 C214.29953472 187.96392084 218.26631286 185.63819381 222.25146484 182.85986328 C224 182 224 182 227 183 C226.39854361 186.57114732 226.09964304 186.92319182 223 189.3125 C210.70519528 199.27989313 203.50653064 219.30799531 201.71484375 234.40234375 C201.3208342 243.87570385 204.04618915 252.61393924 209.6953125 260.16015625 C211 262 211 262 212 265 C213.8842236 266.0646606 213.8842236 266.0646606 216 267 C217.0774593 267.85651195 218.13893608 268.73334707 219.1875 269.625 C227.93758481 276.35328491 240.4665551 282.10042362 251.3125 284.125 C252.19550781 284.29257812 253.07851563 284.46015625 253.98828125 284.6328125 C254.65214844 284.75398438 255.31601562 284.87515625 256 285 C255.67 286.32 255.34 287.64 255 289 C253.25009766 289.36931641 253.25009766 289.36931641 251.46484375 289.74609375 C247.03106862 290.86112235 243.43722769 292.67448571 239.5625 295.0625 C238.91434326 295.45880615 238.26618652 295.8551123 237.59838867 296.26342773 C229.35269559 301.47161272 222.40014687 307.65893717 219 317 C218.76539063 317.62390625 218.53078125 318.2478125 218.2890625 318.890625 C216.31578433 325.19486436 216.28462914 332.29058792 219.08203125 338.33984375 C220.29978468 340.31547394 221.58540901 342.16146431 223 344 C223.598125 344.825 224.19625 345.65 224.8125 346.5 C225.204375 346.995 225.59625 347.49 226 348 C220.98371709 348.17915296 217.14778455 347.79760802 212.27734375 346.45703125 C206.69232652 345.33619589 200.45515839 344.80569328 195.26171875 347.33203125 C192.77617613 348.96695646 192.77617613 348.96695646 191 352 C190.69645984 359.43673381 195.30438399 363.67243566 200 369 C200.68449219 369.81726563 201.36898438 370.63453125 202.07421875 371.4765625 C206.26576804 376.35766426 210.76146513 380.74094825 215.625 384.9375 C216.4142688 385.62863892 216.4142688 385.62863892 217.21948242 386.33374023 C220.96091189 389.47691344 224.49000601 391.27893177 229 393 C228.34 394.32 227.68 395.64 227 397 C225.51113281 396.46366943 225.51113281 396.46366943 223.9921875 395.91650391 C217.12467043 394.21784535 210.05908813 395.56254113 203.125 396.3359375 C201.58956429 396.49695766 200.05399816 396.65673844 198.51831055 396.81533813 C194.49912364 397.23375809 190.48191801 397.66887077 186.46490479 398.10760498 C182.35658265 398.55327935 178.24659264 398.98297674 174.13671875 399.4140625 C166.08943821 400.26050356 158.04418214 401.12460483 150 402 C150.4846875 402.32274902 150.969375 402.64549805 151.46875 402.97802734 C153.65063975 404.43664162 155.8253381 405.90563385 158 407.375 C158.763125 407.88289063 159.52625 408.39078125 160.3125 408.9140625 C161.034375 409.40390625 161.75625 409.89375 162.5 410.3984375 C163.1703125 410.84880371 163.840625 411.29916992 164.53125 411.76318359 C165.25828125 412.37540771 165.25828125 412.37540771 166 413 C166 413.66 166 414.32 166 415 C165.26587891 414.98428955 164.53175781 414.9685791 163.77539062 414.95239258 C148.32681298 414.66581517 134.1567081 414.8024388 119.23828125 419.078125 C114.30435236 420.3079084 109.43994779 420.38380325 104.375 420.375 C103.40731689 420.37338867 102.43963379 420.37177734 101.44262695 420.37011719 C90.05570593 420.17662015 80.1862781 417.06619122 70 412 C75.3451588 418.55936771 80.5395821 423.41902079 87.91015625 427.625 C88.94462891 428.305625 88.94462891 428.305625 90 429 C90 429.66 90 430.32 90 431 C88.17008682 431.51237569 86.33582686 432.00923441 84.5 432.5 C82.96859375 432.91765625 82.96859375 432.91765625 81.40625 433.34375 C62.27113057 437.03033264 40.00098767 427.52895405 23 419.5625 C22.28416748 419.22782715 21.56833496 418.8931543 20.83081055 418.54833984 C16.11862132 416.25209363 11.65770953 413.60683081 7.20703125 410.84350586 C6.60814087 410.47324028 6.00925049 410.1029747 5.39221191 409.72148895 C3.92735857 408.8155904 2.46356994 407.90797056 1 407 C1.00222061 408.00589172 1.00444122 409.01178345 1.00672913 410.04815674 C1.02699393 419.52410604 1.04198827 429.00005095 1.05181217 438.476017 C1.05703249 443.34779005 1.06411475 448.21954561 1.07543945 453.09130859 C1.08629849 457.79212364 1.09228326 462.49292186 1.09487724 467.19374847 C1.09672604 468.98790502 1.10033622 470.78206063 1.10573006 472.57621002 C1.11298046 475.08761084 1.11398924 477.59894198 1.11352539 480.11035156 C1.11712067 480.85338028 1.12071594 481.596409 1.12442017 482.36195374 C1.11770683 485.71721976 1.0490987 488.79271922 0 492 C-1.32 491.67 -2.64 491.34 -4 491 C-4 463.28 -4 435.56 -4 407 C-12.91 412.445 -12.91 412.445 -22 418 C-40.33509354 427.23350034 -63.54252296 438.21567556 -84.5 432.5 C-85.5415625 432.2215625 -86.583125 431.943125 -87.65625 431.65625 C-88.81640625 431.33140625 -88.81640625 431.33140625 -90 431 C-90 430.34 -90 429.68 -90 429 C-88.18650273 427.73144526 -86.32186546 426.53567664 -84.4375 425.375 C-78.98474668 421.85168247 -74.90193025 418.16593583 -71 413 C-73.06973311 413.68991104 -75.12934934 414.41067249 -77.1796875 415.15625 C-78.39914063 415.5996875 -79.61859375 416.043125 -80.875 416.5 C-82.08929688 416.9434375 -83.30359375 417.386875 -84.5546875 417.84375 C-98.44292119 422.50465382 -114.49530406 420.87323201 -128.37109375 416.97265625 C-136.56681322 414.77595641 -144.50932296 414.8800452 -152.9375 414.9375 C-154.19369141 414.94201172 -155.44988281 414.94652344 -156.74414062 414.95117188 C-159.82947663 414.96290319 -162.91471316 414.979319 -166 415 C-166 414.34 -166 413.68 -166 413 C-164.53125 411.76318359 -164.53125 411.76318359 -162.5 410.3984375 C-161.778125 409.90859375 -161.05625 409.41875 -160.3125 408.9140625 C-159.549375 408.40617187 -158.78625 407.89828125 -158 407.375 C-156.8553125 406.6015625 -156.8553125 406.6015625 -155.6875 405.8125 C-153.79568048 404.53552182 -151.89980102 403.26506032 -150 402 C-159.00435226 401.0368928 -168.01009108 400.08839893 -177.01791477 399.15831566 C-181.20096535 398.72594475 -185.38337399 398.2886355 -189.56469727 397.83984375 C-193.60300452 397.40658907 -197.64249265 396.98656412 -201.68311882 396.57551956 C-203.22130143 396.41672822 -204.75900757 396.25324642 -206.296175 396.08491135 C-208.4562063 395.84919178 -210.61735963 395.63049874 -212.77954102 395.41552734 C-214.00753922 395.28673187 -215.23553741 395.1579364 -216.50074768 395.02523804 C-220.48160569 394.99652646 -223.25011997 395.73807222 -227 397 C-227.66 395.68 -228.32 394.36 -229 393 C-227.948125 392.566875 -226.89625 392.13375 -225.8125 391.6875 C-212.85827635 385.16461353 -199.32318532 371.44941504 -192 359 C-190.76760129 355.46459235 -190.76760129 355.46459235 -191 352 C-193.08625339 348.57258371 -194.1744311 347.27518963 -198 346 C-203.47581231 345.65117047 -208.93493165 345.51009018 -214.25 347 C-218.42818143 348.11418171 -221.70480197 348.15339993 -226 348 C-225.40251953 347.29037109 -225.40251953 347.29037109 -224.79296875 346.56640625 C-219.49712269 339.95626263 -216.58233157 334.10701916 -217.0625 325.5 C-218.45221969 315.01127349 -223.4524116 307.51528375 -231.58203125 300.8984375 C-239.17787882 295.22545484 -246.69570155 290.17760176 -256 288 C-256 287.01 -256 286.02 -256 285 C-254.90945312 284.76216797 -254.90945312 284.76216797 -253.796875 284.51953125 C-236.09751395 280.41237183 -218.6020559 272.69694546 -207.5625 257.6875 C-201.19958708 247.35903229 -200.85226689 235.98655096 -203.4375 224.5 C-206.46669725 212.2224721 -213.43456929 197.30452559 -223.25 189.125 C-223.95640625 188.52945313 -224.6628125 187.93390625 -225.390625 187.3203125 C-226.18726563 186.66675781 -226.18726563 186.66675781 -227 186 C-226.67 184.68 -226.34 183.36 -226 182 C-225.24589844 182.37898438 -225.24589844 182.37898438 -224.4765625 182.765625 C-223.25066406 183.37664062 -223.25066406 183.37664062 -222 184 C-220.85273438 184.57234375 -219.70546875 185.1446875 -218.5234375 185.734375 C-203.22815837 193.22457138 -187.56320592 198.16383514 -171 202 C-171.495 197.545 -171.495 197.545 -172 193 C-166.79359985 195.04326648 -161.68980163 197.31217511 -156.5703125 199.5625 C-153.05786286 200.97670292 -149.65270023 202.02843779 -146 203 C-146.27714844 202.02160156 -146.55429688 201.04320312 -146.83984375 200.03515625 C-148.792079 193.01516902 -150.48772826 186.29987231 -151 179 C-146.61099731 180.37244338 -142.54449339 182.06937708 -138.3984375 184.0546875 C-137.10295445 184.67068056 -135.80737751 185.2864762 -134.51171875 185.90209961 C-133.8367334 186.22419403 -133.16174805 186.54628845 -132.46630859 186.87814331 C-116.8144724 194.33884885 -100.9932817 201.30394917 -85 208 C-83.51593302 204.12509934 -84.53836799 201.59944179 -85.87109375 197.7734375 C-86.28037109 196.5771875 -86.68964844 195.3809375 -87.11132812 194.1484375 C-87.54896484 192.90320313 -87.98660156 191.65796875 -88.4375 190.375 C-89.29480669 187.90514777 -90.14575075 185.43320631 -90.99609375 182.9609375 C-91.57121704 181.31810791 -91.57121704 181.31810791 -92.15795898 179.64208984 C-93 177 -93 177 -93 175 C-88.28971963 176.8317757 -88.28971963 176.8317757 -86.0625 178.125 C-83.12386615 179.37169315 -81.16339009 179.45191287 -78 179 C-75.42714276 176.827365 -73.51003081 175.02006162 -72 172 C-72.29986175 162.70428571 -75.87394591 155.15022862 -80.0390625 146.95703125 C-80.39347412 146.259729 -80.74788574 145.56242676 -81.11303711 144.84399414 C-81.81013889 143.48542973 -82.51618459 142.13140346 -83.23266602 140.78295898 C-87.75902937 132.05694555 -88.33036185 124.20686588 -88.25 114.5 C-88.24202393 112.77982666 -88.24202393 112.77982666 -88.23388672 111.02490234 C-87.97552068 87.78177058 -87.97552068 87.78177058 -84 81 C-83.01 81.33 -82.02 81.66 -81 82 C-81.07476562 83.15757813 -81.14953125 84.31515625 -81.2265625 85.5078125 C-81.22017781 90.34528067 -79.65819252 93.6897463 -77.375 97.875 C-76.82912231 98.91382324 -76.82912231 98.91382324 -76.2722168 99.97363281 C-75.20081948 101.99364602 -74.10496082 103.99819219 -73 106 C-72.16275391 107.54300781 -72.16275391 107.54300781 -71.30859375 109.1171875 C-67.71533071 115.56541573 -67.71533071 115.56541573 -62 120 C-57.60347583 120.07850936 -55.63106877 119.50485501 -52.1875 116.75 C-49.51621402 113.39181191 -47.95399388 110.78612005 -48.06640625 106.421875 C-49.16582793 100.50058031 -50.7723338 95.93478989 -54.07421875 90.875 C-55 89 -55 89 -54 86 C-46.74 89.96 -39.48 93.92 -32 98 C-32.5573532 80.27616821 -34.34432093 64.13686124 -39 47 C-38.59910156 47.42152344 -38.19820312 47.84304687 -37.78515625 48.27734375 C-33.86493499 52.05533476 -30.7792709 53.98799954 -25.26953125 54.22265625 C-20.42076651 53.74695988 -16.76915634 51.95756 -13.49609375 48.3359375 C-7.17455852 39.16499385 -6.40117554 27.82520341 -5.26513672 17.05615234 C-4.52412285 10.75809331 -2.91290136 5.63502026 0 0 Z " fill="#D08336" transform="translate(256,10)"/>
<path d="M0 0 C0 4.22054327 -2.16101586 7.02967714 -4.25 10.5625 C-12.91358351 25.62300238 -17.64891279 39.79339559 -13.0625 57.05859375 C-11.6822172 60.87974431 -9.72949969 63.92104145 -7.3046875 67.16015625 C-6 69 -6 69 -5 72 C-3.1157764 73.0646606 -3.1157764 73.0646606 -1 74 C0.0774593 74.85651195 1.13893608 75.73334707 2.1875 76.625 C10.85207723 83.2662108 21.81317961 87.2946588 32 91 C32 91.33 32 91.66 32 92 C31.24082275 92.0501123 30.48164551 92.10022461 29.69946289 92.15185547 C21.12947871 92.7237497 12.56427697 93.34854294 4 94 C3.17129395 94.05881348 2.34258789 94.11762695 1.48876953 94.17822266 C-51.69799816 98.11381857 -99.71113497 123.96861938 -140.77514648 156.32714844 C-162.36708554 173.29833418 -183.65956196 187.41882421 -212 187 C-206.44715051 180.47540185 -206.44715051 180.47540185 -204.20703125 178.09375 C-196.35580423 169.67593959 -190.27761898 159.95763971 -183.9453125 150.38671875 C-169.13804681 128.00993554 -153.16365134 107.6869206 -132 91 C-130.97487305 90.17604736 -129.94974609 89.35209473 -128.89355469 88.50317383 C-120.74039116 81.97510067 -112.34789368 75.98847625 -103.625 70.25 C-102.31031189 69.3794222 -100.99569735 68.50873331 -99.68115234 67.63793945 C-87.92443922 59.87117937 -75.99307774 52.39553198 -64 45 C-30.49743275 24.57817075 -30.49743275 24.57817075 0 0 Z " fill="#FEC272" transform="translate(473,203)"/>
<path d="M0 0 C-0.58359075 8.31616812 -2.73799414 16.01459326 -5 24 C6.58769842 20.41998067 6.58769842 20.41998067 17.36328125 14.91796875 C19 14 19 14 21 14 C20.67 16.97 20.34 19.94 20 23 C34.92694525 19.30889728 49.13660819 15.17711397 63.14257812 8.80224609 C65.70777147 7.69430375 68.33262565 6.82621501 71 6 C48.76597077 28.95125598 20.05629277 45.24522975 -6.93847656 61.90429688 C-36.14725362 79.93283321 -64.66055999 98.79651004 -89.25 122.9375 C-89.76747803 123.43733398 -90.28495605 123.93716797 -90.81811523 124.45214844 C-101.71600749 135.36865222 -110.20042021 148.45526573 -118.6875 161.25 C-130.85935212 179.57674334 -130.85935212 179.57674334 -138 188 C-138.69863159 188.83217041 -138.69863159 188.83217041 -139.41137695 189.68115234 C-140.5268221 190.99071277 -141.66823921 192.27804149 -142.8125 193.5625 C-143.90498047 194.80193359 -143.90498047 194.80193359 -145.01953125 196.06640625 C-147 198 -147 198 -150 199 C-151.21450574 164.76962295 -151.21450574 164.76962295 -145.0703125 153.08691406 C-143.77579048 150.56283235 -142.62624849 147.98816812 -141.46875 145.3984375 C-136.54796669 134.53057371 -131.3877124 124.41701221 -124 115 C-123.27167969 114.06414062 -122.54335938 113.12828125 -121.79296875 112.1640625 C-118.03965132 107.4707724 -114.10339634 103.01379485 -110 98.625 C-98.03578908 85.4625245 -91.23175378 70.56498427 -83.87841797 54.55859375 C-78.06960918 41.99605477 -71.41763835 30.9527704 -58.171875 25.390625 C-56.99399414 24.89006592 -55.81611328 24.38950684 -54.60253906 23.8737793 C-53.66142273 23.47731705 -53.66142273 23.47731705 -52.70129395 23.07284546 C-38.97815923 17.28590643 -25.47259577 11.09269412 -12.03417969 4.67480469 C-11.37599243 4.36205093 -10.71780518 4.04929718 -10.03967285 3.72706604 C-8.2543425 2.87828244 -6.47132799 2.02463256 -4.68847656 1.1706543 C-2 0 -2 0 0 0 Z " fill="#FEC272" transform="translate(407,189)"/>
<path d="M0 0 C15.9958255 5.61596281 15.9958255 5.61596281 32.29614258 10.23266602 C33.105271 10.4341626 33.91439941 10.63565918 34.74804688 10.84326172 C41.90603126 12.55165868 49.11868143 13.6530458 56.41845703 14.55761719 C61.29326232 15.16774424 65.7973572 16.05896215 70.48364258 17.54516602 C70.48364258 18.20516602 70.48364258 18.86516602 70.48364258 19.54516602 C47.71364258 21.85516602 24.94364258 24.16516602 1.48364258 26.54516602 C6.76364258 30.17516602 12.04364258 33.80516602 17.48364258 37.54516602 C17.48364258 38.20516602 17.48364258 38.86516602 17.48364258 39.54516602 C16.38246094 39.52160034 16.38246094 39.52160034 15.2590332 39.49755859 C-0.18954445 39.21098119 -14.35964932 39.34760482 -29.27807617 43.62329102 C-34.21200506 44.85307442 -39.07640963 44.92896926 -44.14135742 44.92016602 C-45.10904053 44.91855469 -46.07672363 44.91694336 -47.07373047 44.9152832 C-58.46065149 44.72178617 -68.33007933 41.61135724 -78.51635742 36.54516602 C-73.17119862 43.10453373 -67.97677532 47.9641868 -60.60620117 52.17016602 C-59.57172852 52.85079102 -59.57172852 52.85079102 -58.51635742 53.54516602 C-58.51635742 54.20516602 -58.51635742 54.86516602 -58.51635742 55.54516602 C-60.34627061 56.05754171 -62.18053057 56.55440042 -64.01635742 57.04516602 C-65.03729492 57.32360352 -66.05823242 57.60204102 -67.11010742 57.88891602 C-88.55129519 62.01978705 -113.8276633 50.23678238 -132.37426758 40.58911133 C-134.41751442 39.59333705 -136.45282763 38.80394375 -138.59057617 38.03735352 C-142.72810173 36.25709928 -144.84948638 35.20860465 -147.51635742 31.54516602 C-149.07307645 23.66302625 -148.3052937 15.48494599 -147.51635742 7.54516602 C-146.35620117 7.5077832 -145.19604492 7.47040039 -144.00073242 7.43188477 C-125.33866476 6.70656068 -110.0435307 1.72412811 -94.01635742 -7.76733398 C-89.06777175 -10.6703548 -85.17606039 -12.59148946 -79.51635742 -13.45483398 C-77.59823242 -13.76420898 -77.59823242 -13.76420898 -75.64135742 -14.07983398 C-48.58415682 -16.52698694 -25.21532252 -8.71974682 0 0 Z " fill="#FEC272" transform="translate(404.516357421875,385.454833984375)"/>
<path d="M0 0 C1.71292236 -0.00833862 1.71292236 -0.00833862 3.46044922 -0.0168457 C15.6937975 0.08825796 24.76861953 2.92864977 35.44360352 8.87915039 C51.09161228 17.52159901 65.10214863 21.08303934 82.9375 21.3125 C84.69596552 40.37770937 84.69596552 40.37770937 81.2265625 46.16796875 C78.89027257 47.8962337 76.59122498 49.20844767 73.93701172 50.38720703 C71.59212288 51.47232653 69.37621226 52.72125994 67.12890625 53.99609375 C44.98117864 66.38103686 20.23968466 76.39711171 -5.0625 69.3125 C-5.0625 68.6525 -5.0625 67.9925 -5.0625 67.3125 C-3.24900273 66.04394526 -1.38436546 64.84817664 0.5 63.6875 C5.95275332 60.16418247 10.03556975 56.47843583 13.9375 51.3125 C11.86776689 52.00241104 9.80815066 52.72317249 7.7578125 53.46875 C6.53835937 53.9121875 5.31890625 54.355625 4.0625 54.8125 C2.84820312 55.2559375 1.63390625 55.699375 0.3828125 56.15625 C-13.50542119 60.81715382 -29.55780406 59.18573201 -43.43359375 55.28515625 C-51.62931322 53.08845641 -59.57182296 53.1925452 -68 53.25 C-69.25619141 53.25451172 -70.51238281 53.25902344 -71.80664062 53.26367188 C-74.89197663 53.27540319 -77.97721316 53.291819 -81.0625 53.3125 C-81.0625 52.6525 -81.0625 51.9925 -81.0625 51.3125 C-79.59375 50.07568359 -79.59375 50.07568359 -77.5625 48.7109375 C-76.840625 48.22109375 -76.11875 47.73125 -75.375 47.2265625 C-74.2303125 46.46472656 -74.2303125 46.46472656 -73.0625 45.6875 C-72.299375 45.171875 -71.53625 44.65625 -70.75 44.125 C-68.85818048 42.84802182 -66.96230102 41.57756032 -65.0625 40.3125 C-65.90996796 40.22924469 -66.75743591 40.14598938 -67.63058472 40.06021118 C-75.60701418 39.27501877 -83.5825436 38.48134321 -91.55717278 37.67806435 C-95.65729383 37.26536613 -99.75769044 36.85598577 -103.85888672 36.45410156 C-107.81485188 36.06632693 -111.76986796 35.66995019 -115.72436905 35.26752853 C-117.23517237 35.11532621 -118.74629448 34.96625545 -120.25771713 34.82033157 C-122.37048849 34.61581526 -124.48186433 34.4003123 -126.59326172 34.18212891 C-127.79683319 34.06221588 -129.00040466 33.94230286 -130.240448 33.8187561 C-133.0625 33.3125 -133.0625 33.3125 -135.0625 31.3125 C-127.77851568 29.40099716 -120.51353352 28.03829871 -113.0715332 26.92651367 C-95.343657 24.26646902 -79.31345043 19.0883683 -62.4961853 13.07345581 C-41.62328484 5.60902624 -22.33628447 0.09197471 0 0 Z " fill="#EFA245" transform="translate(171.0625,371.6875)"/>
<path d="M0 0 C-2.90916458 2.33026281 -5.98940894 4.17195356 -9.22924805 6.00610352 C-19.08206804 11.63575992 -27.97362107 17.93851942 -32 29 C-32.23460937 29.62390625 -32.46921875 30.2478125 -32.7109375 30.890625 C-34.68421567 37.19486436 -34.71537086 44.29058792 -31.91796875 50.33984375 C-30.70021532 52.31547394 -29.41459099 54.16146431 -28 56 C-27.401875 56.825 -26.80375 57.65 -26.1875 58.5 C-25.795625 58.995 -25.40375 59.49 -25 60 C-30.01628291 60.17915296 -33.85221545 59.79760802 -38.72265625 58.45703125 C-44.30767348 57.33619589 -50.54484161 56.80569328 -55.73828125 59.33203125 C-58.22382387 60.96695646 -58.22382387 60.96695646 -60 64 C-60.30354016 71.43673381 -55.69561601 75.67243566 -51 81 C-50.31550781 81.81726563 -49.63101563 82.63453125 -48.92578125 83.4765625 C-42.93294323 90.4552833 -36.11406831 96.21638341 -29 102 C-32.60025984 103.20008661 -33.98733397 102.68934667 -37.625 101.75 C-42.81659645 100.47800131 -47.98322028 99.44382029 -53.25 98.5625 C-67.45823099 96.09472969 -80.95916212 92.49551376 -94.625 87.9375 C-95.61359512 87.60816971 -95.61359512 87.60816971 -96.62216187 87.27218628 C-108.48921793 83.30220201 -108.48921793 83.30220201 -112.75 81.37890625 C-134.79178589 72.02704277 -160.35514669 68.61044877 -184 72 C-179.08036106 66.9104099 -173.63320513 62.73685147 -167.98974609 58.50244141 C-165.90392335 56.92745328 -163.83704839 55.32939232 -161.76953125 53.73046875 C-139.49054476 36.69359673 -114.61548236 22.95501293 -88 14 C-86.75621582 13.57871826 -86.75621582 13.57871826 -85.48730469 13.14892578 C-57.73180855 3.88867379 -29.25358071 -0.69836134 0 0 Z " fill="#FEC272" transform="translate(507,298)"/>
<path d="M0 0 C14.62060675 -0.43237282 28.55993835 0.74005166 43 3 C43.91007812 3.13390137 44.82015625 3.26780273 45.7578125 3.40576172 C61.05936224 5.67949705 75.40605387 9.92743095 90 15 C90.76538086 15.26039063 91.53076172 15.52078125 92.31933594 15.7890625 C117.17511904 24.28836269 140.27429662 37.17972926 160.91259766 53.36572266 C163.22712932 55.17782499 165.55609439 56.97036725 167.88671875 58.76171875 C174.27381822 63.68597045 174.27381822 63.68597045 177.33203125 66.06640625 C177.96858643 66.56084229 178.6051416 67.05527832 179.26098633 67.56469727 C180.94878858 68.95773243 182.48110508 70.42624394 184 72 C183.00895264 71.97905273 182.01790527 71.95810547 180.99682617 71.93652344 C154.67140023 71.08842528 154.67140023 71.08842528 129 76 C127.79811035 76.3815625 126.5962207 76.763125 125.35791016 77.15625 C113.52327483 80.94206173 101.76595115 84.95795517 90.05078125 89.09765625 C72.89177849 95.10218905 55.25565543 98.39535001 37.36328125 101.421875 C34.56380938 101.90308503 31.78155807 102.4256056 29 103 C31.59657865 100.35542544 34.21449311 97.77588337 36.98046875 95.30859375 C50.52931245 83.24800585 50.52931245 83.24800585 60 68 C59.87154361 64.72436213 59.61385083 62.80916701 57.625 60.1875 C52.92346366 56.7517619 46.52479945 57.69736767 41 58 C38.75487603 58.41005314 38.75487603 58.41005314 36.75 59 C32.57181857 60.11418171 29.29519803 60.15339993 25 60 C25.39832031 59.52691406 25.79664062 59.05382812 26.20703125 58.56640625 C31.50287731 51.95626263 34.41766843 46.10701916 33.9375 37.5 C32.5501158 27.0289003 27.56496857 19.57833339 19.48828125 12.93359375 C13.32882705 8.30301976 6.8562546 4.50106618 0 1 C0 0.67 0 0.34 0 0 Z " fill="#EEA145" transform="translate(5,298)"/>
<path d="M0 0 C0.33 0 0.66 0 1 0 C1.06726582 28.92089446 0.89217983 57.8352512 0.59614182 86.7545445 C0.53860793 92.41845597 0.48343622 98.08239052 0.42797852 103.74632263 C0.32334208 114.39809662 0.21668293 125.04984929 0.10923481 135.70159525 C-0.01330326 147.85949348 -0.13349161 160.01741463 -0.25351524 172.17533791 C-0.49979073 197.11691765 -0.74891088 222.05846829 -1 247 C-2.83917869 244.24123196 -3.89619113 241.91302072 -5.06640625 238.8359375 C-16.16935961 210.08950437 -31.31225074 186.67029203 -50.10742188 162.37670898 C-67.06557866 140.42033208 -82.81220344 116.94491606 -81 88 C-78.00817102 91.59389983 -76.18527143 95.56294964 -74.1875 99.75 C-69.19082778 110.14999074 -69.19082778 110.14999074 -61 118 C-56.69658297 117.92030709 -54.57476422 117.45981138 -51.1875 114.75 C-48.51621402 111.39181191 -46.95399388 108.78612005 -47.06640625 104.421875 C-48.16582793 98.50058031 -49.7723338 93.93478989 -53.07421875 88.875 C-54 87 -54 87 -53 84 C-45.74 87.96 -38.48 91.92 -31 96 C-31.5573532 78.27616821 -33.34432093 62.13686124 -38 45 C-37.59910156 45.42152344 -37.19820312 45.84304687 -36.78515625 46.27734375 C-32.86493499 50.05533476 -29.7792709 51.98799954 -24.26953125 52.22265625 C-19.42076651 51.74695988 -15.76915634 49.95756 -12.49609375 46.3359375 C-6.1431059 37.11936408 -5.39339794 25.69326728 -4.17724609 14.88037109 C-3.51565125 9.38322503 -2.46962737 4.96669504 0 0 Z " fill="#EEA245" transform="translate(255,12)"/>
<path d="M0 0 C0.33 0 0.66 0 1 0 C1.10022461 0.76554199 1.20044922 1.53108398 1.30371094 2.31982422 C1.77237948 5.84015197 2.26104388 9.35743505 2.75 12.875 C2.90726562 14.07898438 3.06453125 15.28296875 3.2265625 16.5234375 C4.49234282 25.48126745 6.11587407 35.50925269 13 42 C17.78881834 44.81695197 21.53123865 45.46380068 26.91796875 44.65625 C30.16008602 43.63434437 31.88091874 41.56858334 34 39 C34.66 38.67 35.32 38.34 36 38 C35.73445313 39.00417969 35.46890625 40.00835937 35.1953125 41.04296875 C31.01143775 57.10983906 29.61079083 72.406849 29 89 C36.26 85.04 43.52 81.08 51 77 C52 80 52 80 50.8203125 82.63671875 C50.26085937 83.64347656 49.70140625 84.65023437 49.125 85.6875 C44.98149504 93.53790532 44.98149504 93.53790532 45.671875 102.16015625 C47.13260569 105.45877351 48.60971328 107.65190644 51.3125 110.0625 C55.05981365 111.36970244 57.20416967 111.15230564 61 110 C64.69250266 106.04416514 67.39526987 101.91215616 70.0625 97.1875 C70.40539062 96.58019043 70.74828125 95.97288086 71.1015625 95.34716797 C73.70705415 90.67239089 75.95512941 85.94177058 78 81 C78.33 81 78.66 81 79 81 C79.78446441 110.85322901 64.96708241 133.2629336 47.25 156.1875 C45.97310136 157.84276721 44.69695606 159.49860561 43.421875 161.15527344 C42.42432581 162.44948388 41.42409039 163.74162617 40.421875 165.03222656 C22.4512055 188.28282992 8.08237448 213.98804503 -1 242 C-1.33 242 -1.66 242 -2 242 C-2.12532516 196.26825335 -2.01273823 150.54150769 -1.59428024 104.81133652 C-1.56305304 101.3733865 -1.53288726 97.9354286 -1.50296021 94.49746704 C-1.22582222 62.99274261 -0.71164711 31.49788612 0 0 Z " fill="#FEC272" transform="translate(259,19)"/>
<path d="M0 0 C0.33 0 0.66 0 1 0 C4.16863818 21.15001585 2.79533169 39.20519809 -7.73803711 57.82836914 C-11.28836038 64.1487499 -15.15385428 71.58236533 -14 79 C-11.7241177 83.22481746 -11.7241177 83.22481746 -8 86 C-2.37597392 86.65395652 0.36174015 84.85431375 5 82 C5.66 82 6.32 82 7 82 C6.09157766 85.69425083 5.05742799 89.3457082 4 93 C3.76361816 93.82016602 3.52723633 94.64033203 3.28369141 95.48535156 C2.46634461 98.27005059 1.61171797 101.04123612 0.75 103.8125 C0.48695068 104.71959717 0.22390137 105.62669434 -0.04711914 106.5612793 C-1.80414491 112.07239022 -3.5516718 114.86902083 -8.13012695 118.33837891 C-15.13656629 124.56449539 -18.86173813 134.53536998 -22.5625 142.9375 C-23.52120788 145.05901315 -24.48083153 147.18011271 -25.44140625 149.30078125 C-26.600856 151.87812489 -27.75939433 154.4556085 -28.90185547 157.04052734 C-34.01878008 168.56276293 -41.94118063 177.8154393 -50.5 186.9375 C-65.6831117 203.26102611 -76.915775 222.85446378 -84 244 C-84.33 244 -84.66 244 -85 244 C-85.14042454 234.69716592 -85.24632981 225.39470911 -85.31087303 216.09103775 C-85.34188624 211.76863826 -85.38379109 207.44697558 -85.45263672 203.125 C-86.01973646 166.53399033 -86.01973646 166.53399033 -79 150 C-78.58621094 148.89946289 -78.17242187 147.79892578 -77.74609375 146.66503906 C-76.68225365 143.8981377 -75.53151665 141.20156992 -74.3125 138.5 C-73.89025146 137.54988037 -73.46800293 136.59976074 -73.03295898 135.62084961 C-63.00051778 113.46180792 -49.71883226 94.46649343 -35 75.234375 C-33.66632418 73.48984511 -32.33297872 71.7450626 -31 70 C-30.39800781 69.21302734 -29.79601562 68.42605469 -29.17578125 67.61523438 C-13.17813131 46.56664103 -3.96771115 26.06431391 0 0 Z " fill="#FEC272" transform="translate(342,103)"/>
<path d="M0 0 C0.33 0 0.66 0 1 0 C1.14695313 1.10214844 1.29390625 2.20429687 1.4453125 3.33984375 C5.58153875 32.17479154 19.39988695 54.07094873 37.19165039 76.59985352 C57.99642525 102.96730905 85.29135797 140.54084186 85.11352539 175.7277832 C85.11367142 176.48929184 85.11381744 177.25080048 85.1139679 178.03538513 C85.11327387 180.54054662 85.1055054 183.04563282 85.09765625 185.55078125 C85.09579026 187.29241393 85.09436721 189.03404714 85.09336853 190.77568054 C85.08955762 195.35085509 85.07973953 199.9259977 85.06866455 204.50115967 C85.05841975 209.17329476 85.05386434 213.84543503 85.04882812 218.51757812 C85.03811596 227.67839942 85.02105668 236.83919705 85 246 C83.15279635 243.22919452 82.10198925 240.89425509 80.93359375 237.80078125 C73.26911399 217.84801459 65.16471322 202.13627101 50.65234375 186.46484375 C38.30238503 173.06938588 30.17137678 158.64819474 22.95336914 142.0234375 C18.03897317 129.10381194 18.03897317 129.10381194 9.41821289 118.90917969 C2.46511456 114.05100397 0.91610858 106.47207338 -1.4375 98.75 C-1.88533519 97.34830666 -2.33518886 95.94725653 -2.78710938 94.546875 C-6 84.48100082 -6 84.48100082 -6 82 C-1.28971963 83.8317757 -1.28971963 83.8317757 0.9375 85.125 C3.87613385 86.37169315 5.83660991 86.45191287 9 86 C11.57285724 83.827365 13.48996919 82.02006162 15 79 C14.70013825 69.70428571 11.12605409 62.15022862 6.9609375 53.95703125 C6.60652588 53.259729 6.25211426 52.56242676 5.88696289 51.84399414 C5.18986111 50.48542973 4.48381541 49.13140346 3.76733398 47.78295898 C-0.85761575 38.86688876 -1.29429747 30.91530235 -1.1875 21 C-1.18685547 19.86304687 -1.18621094 18.72609375 -1.18554688 17.5546875 C-1.15453477 11.61414657 -0.8997086 5.87329776 0 0 Z " fill="#FEC272" transform="translate(169,103)"/>
<path d="M0 0 C4.3138245 1.4565127 7.59832567 3.76057927 11.125 6.5625 C11.693396 7.00795166 12.26179199 7.45340332 12.84741211 7.91235352 C14.57067373 9.26783856 16.2861014 10.63270431 18 12 C18.94746094 12.75023437 19.89492187 13.50046875 20.87109375 14.2734375 C27.858652 19.89188056 34.47823635 25.85378734 41 32 C41.7321875 32.68964844 42.464375 33.37929688 43.21875 34.08984375 C55.92105707 46.41410596 66.09292545 61.35535897 75.625 76.1875 C82.4099136 86.73883421 89.48837136 96.63265737 98.0546875 105.84375 C99.83824402 107.82070422 101.44140944 109.84345961 103 112 C72.29396312 113.81573148 49.1133345 94.72744139 26.19628906 76.72119141 C22.77436651 74.03949354 19.33756249 71.37903795 15.875 68.75 C15.23361084 68.26273437 14.59222168 67.77546875 13.93139648 67.2734375 C8.52032011 63.23773586 2.84842297 59.68740538 -3.03759766 56.38378906 C-7.74032275 53.62673158 -7.74032275 53.62673158 -8.92578125 50.765625 C-8.95027344 49.85296875 -8.97476563 48.9403125 -9 48 C-9.03407959 47.36698975 -9.06815918 46.73397949 -9.10327148 46.08178711 C-9.87087866 29.44779596 -7.86571894 14.86595424 0 0 Z " fill="#FEC272" transform="translate(148,278)"/>
<path d="M0 0 C1.1315918 2.03442383 1.1315918 2.03442383 2.19921875 4.70703125 C2.59923096 5.68027344 2.99924316 6.65351563 3.41137695 7.65625 C3.83249756 8.6978125 4.25361816 9.739375 4.6875 10.8125 C10.85659421 25.44943836 18.93466803 36.38350107 29.41455078 48.20996094 C40.70636535 60.95889602 49.45825513 74.24270184 56 90 C56.38929688 90.90878906 56.77859375 91.81757813 57.1796875 92.75390625 C64.45989122 110.09526108 66.23915556 125.2792191 65 144 C51.76114414 137.8234884 42.8654319 119.83837868 35.1027832 108.11303711 C25.62093486 93.79393791 15.90576375 80.41499569 4 68 C3.49597656 67.46874512 2.99195313 66.93749023 2.47265625 66.39013672 C-5.43649008 58.0889847 -13.79698546 50.82796573 -23 44 C-23.68578125 43.49065918 -24.3715625 42.98131836 -25.078125 42.45654297 C-29.36759354 39.27955749 -33.67655501 36.13056171 -38 33 C-36.79236693 22.96042356 -26.63311029 15.3234895 -19.20703125 9.375 C-4.51531191 -1.50510397 -4.51531191 -1.50510397 0 0 Z " fill="#FEC172" transform="translate(189,243)"/>
<path d="M0 0 C0.33 0 0.66 0 1 0 C1.14695313 1.10214844 1.29390625 2.20429687 1.4453125 3.33984375 C5.90499666 34.42971944 21.8808446 57.23566439 40.94848633 81.42114258 C46.37259321 88.35403283 51.25657774 95.5897689 56 103 C48.34988095 113.85321767 39.4778023 122.87205812 29 131 C28.10925781 131.74378906 27.21851563 132.48757812 26.30078125 133.25390625 C24 135 24 135 22 135 C21.67 135.99 21.34 136.98 21 138 C20.36384766 136.62328125 20.36384766 136.62328125 19.71484375 135.21875 C15.7709966 126.89083341 11.88303427 119.25535618 4 114 C2.74145508 111.05078125 2.74145508 111.05078125 1.51953125 107.3125 C1.30181564 106.65419189 1.08410004 105.99588379 0.85978699 105.31762695 C0.40202861 103.9272231 -0.0507124 102.53515876 -0.4987793 101.14160156 C-1.18593274 99.00487344 -1.88741193 96.87329001 -2.59179688 94.7421875 C-6 84.34372087 -6 84.34372087 -6 82 C-1.28971963 83.8317757 -1.28971963 83.8317757 0.9375 85.125 C3.87613385 86.37169315 5.83660991 86.45191287 9 86 C11.57285724 83.827365 13.48996919 82.02006162 15 79 C14.70013825 69.70428571 11.12605409 62.15022862 6.9609375 53.95703125 C6.60652588 53.259729 6.25211426 52.56242676 5.88696289 51.84399414 C5.18986111 50.48542973 4.48381541 49.13140346 3.76733398 47.78295898 C-0.85761575 38.86688876 -1.29429747 30.91530235 -1.1875 21 C-1.18685547 19.86304687 -1.18621094 18.72609375 -1.18554688 17.5546875 C-1.15453477 11.61414657 -0.8997086 5.87329776 0 0 Z " fill="#EEA245" transform="translate(169,103)"/>
<path d="M0 0 C2.3125 -0.25 2.3125 -0.25 5 0 C7.83533067 3.02386928 8.93322712 6.30672923 10.25 10.1875 C12.59446862 16.45579484 15.50431726 21.08074116 20 26 C20.59167969 26.64839844 21.18335938 27.29679687 21.79296875 27.96484375 C24.52914015 30.82181741 27.00474703 33.00298887 30.375 35.125 C33 37 33 37 34.1875 39.4375 C33.96107882 42.53192274 32.93281893 43.60138317 30.65625 45.625 C29.83640625 46.305625 29.83640625 46.305625 29 47 C18.09303436 56.2977412 12.43913256 65.12759661 6.796875 78.28515625 C6 80 6 80 5 81 C3.33382885 81.04063832 1.66611905 81.042721 0 81 C-0.21914063 80.48953125 -0.43828125 79.9790625 -0.6640625 79.453125 C-1.75248954 76.95770691 -2.87449436 74.4789174 -4 72 C-4.42410156 71.03707031 -4.84820312 70.07414062 -5.28515625 69.08203125 C-10.13971197 58.62918565 -16.75189385 51.04874067 -26.34765625 44.66796875 C-28 43 -28 43 -28.5625 40.5703125 C-27.7562159 36.88604208 -25.93965434 35.89769976 -22.9375 33.6875 C-13.76906515 26.54082258 -8.80020462 19.58258368 -4 9 C-3.58363281 8.08605469 -3.16726563 7.17210938 -2.73828125 6.23046875 C-1.80911244 4.16021543 -0.89513713 2.08514296 0 0 Z " fill="#FFC372" transform="translate(426,63)"/>
<path d="M0 0 C2.32511801 0.94419355 3.71299185 1.53206212 5.0456543 3.70483398 C5.4310437 4.71525757 5.4310437 4.71525757 5.82421875 5.74609375 C6.12577881 6.49592529 6.42733887 7.24575684 6.73803711 8.01831055 C7.20802124 9.21580933 7.20802124 9.21580933 7.6875 10.4375 C12.31360126 21.4677953 18.15202107 29.56867767 28.15234375 36.46484375 C30.17588474 38.1461368 31.00530579 39.58877791 32 42 C29.60713072 45.43324722 27.02963389 47.80328424 23.6875 50.25 C15.25871216 56.67193359 11.07958971 64.40593041 7 74 C5.7031815 76.68687233 4.35435735 79.34144668 3 82 C1.35 82 -0.3 82 -2 82 C-2.70833333 80.58333333 -3.41666667 79.16666667 -4.125 77.75 C-4.58519531 76.83863281 -5.04539062 75.92726563 -5.51953125 74.98828125 C-6.50460196 72.99994592 -7.4606464 70.99695869 -8.38671875 68.98046875 C-13.1125358 58.8944099 -19.0736945 51.95566677 -28.21484375 45.60546875 C-30.27403426 43.75354906 -30.81772443 42.75070407 -31 40 C-28.85886274 37.35926404 -26.65032113 35.47318142 -23.90625 33.4765625 C-14.39642558 26.53960154 -9.68017955 18.10486723 -5.39599609 7.35766602 C-3.94706713 3.78984063 -3.28812576 2.19208384 0 0 Z " fill="#FFC372" transform="translate(109,84)"/>
<path d="M0 0 C3.64576392 -0.05878077 7.29140352 -0.0938558 10.9375 -0.125 C12.46987305 -0.15013672 12.46987305 -0.15013672 14.03320312 -0.17578125 C26.07741685 -0.25274108 35.01038425 2.71607637 45.50610352 8.56665039 C61.15411228 17.20909901 75.16464863 20.77053934 93 21 C94.60888449 40.34869243 94.60888449 40.34869243 91.125 46.08984375 C87.68964019 48.71467335 85.29577177 50.16952507 80.85424805 49.84155273 C73.71251916 48.64181121 67.1837047 45.91030347 60.5625 43.0625 C59.42594971 42.57595947 58.28939941 42.08941895 57.1184082 41.58813477 C37.74197807 33.11256549 10.43177187 19.49831186 0 0 Z " fill="#FEC172" transform="translate(161,372)"/>
<path d="M0 0 C0.33 0 0.66 0 1 0 C1.03328796 8.66664381 1.05179987 17.33330174 1.0625 26 C1.06335602 26.68802452 1.06421204 27.37604904 1.06509399 28.08492279 C1.1006549 60.76646259 0.80472643 93.44514944 0.5 126.125 C0.48804218 127.40777832 0.47608437 128.69055664 0.46376419 130.01220703 C0.31418915 146.00818755 0.15947811 162.00411526 0 178 C-1.83917869 175.24123196 -2.89619113 172.91302072 -4.06640625 169.8359375 C-12.90921583 146.67033186 -12.90921583 146.67033186 -26.19921875 125.859375 C-27 124 -27 124 -26.4453125 121.828125 C-24.84013587 118.68718479 -23.20213359 115.56779659 -21.52197266 112.46630859 C-7.21291656 86.0209949 -4.69270694 61.39492296 -3.66259766 31.68041992 C-3.62956543 30.73400635 -3.5965332 29.78759277 -3.5625 28.8125 C-3.53075684 27.89122314 -3.49901367 26.96994629 -3.46630859 26.02075195 C-3.09481256 17.2020685 -1.7163751 8.64664438 0 0 Z " fill="#FDC171" transform="translate(254,81)"/>
<path d="M0 0 C2.63196624 2.50357764 3.75071901 4.00287602 4.625 7.5 C3.68953732 11.2418507 1.11246617 12.97641016 -2 15 C-4.9499113 16.28189119 -7.9868629 17.19292475 -11.0625 18.125 C-19.9614578 20.99426292 -27.97121057 24.85374707 -36.10766602 29.44384766 C-36.93709717 29.90452637 -37.76652832 30.36520508 -38.62109375 30.83984375 C-39.3473999 31.25613037 -40.07370605 31.67241699 -40.82202148 32.10131836 C-43.39236654 33.16189903 -45.24370853 33.26534383 -48 33 C-50.72594334 30.76083226 -51.36639362 28.1682671 -52 24.8125 C-52.51251018 18.31002711 -49.34734748 14.13851473 -45.59765625 9.125 C-35.04034941 -2.90979253 -14.02342337 -9.30865172 0 0 Z " fill="#FFDAAE" transform="translate(447,260)"/>
<path d="M0 0 C1.32 0 2.64 0 4 0 C4.51046875 1.17755859 4.51046875 1.17755859 5.03125 2.37890625 C8.32479807 9.51784688 11.59999156 14.38679595 18 19 C16.76322096 21.7345298 16.04182611 22.96697939 13.625 24.875 C8.42784454 29.08222109 5.82650642 35.07636421 3 41 C2.01 41 1.02 41 0 41 C-0.3403125 40.21496094 -0.680625 39.42992187 -1.03125 38.62109375 C-4.32479807 31.48215312 -7.59999156 26.61320405 -14 22 C-13.40935942 18.69653351 -13.23760925 18.17537826 -10.375 16.0625 C-5.25902638 12.16343272 -2.78755331 5.63283701 0 0 Z " fill="#FFC372" transform="translate(57,423)"/>
<path d="M0 0 C4.68498448 1.5916358 8.41592297 4.13172598 12.4375 6.9375 C13.4898584 7.66622314 13.4898584 7.66622314 14.56347656 8.40966797 C20.42910652 12.51349424 26.06165553 16.8712561 31.6484375 21.34375 C35.96369336 24.79190992 40.41418386 28.05322628 44.8671875 31.3203125 C45.57101563 31.87460937 46.27484375 32.42890625 47 33 C47 33.33 47 33.66 47 34 C45.75476563 33.83371094 44.50953125 33.66742188 43.2265625 33.49609375 C39.56731754 33.08290699 36.01699058 32.97082838 32.3359375 33.03515625 C16.82994687 33.20318378 16.82994687 33.20318378 12.16015625 30.1328125 C10.2996717 27.49185257 9.15907038 25.01278911 8 22 C6.90291598 19.91292826 5.79869369 17.8295938 4.6875 15.75 C2.10243372 10.50904371 0 5.90775878 0 0 Z " fill="#FDC071" transform="translate(142,336)"/>
<path d="M0 0 C0.99 0 1.98 0 3 0 C3.27972656 0.65226563 3.55945313 1.30453125 3.84765625 1.9765625 C6.70963477 8.21585972 9.4941519 11.89760337 15 16 C14.30427806 19.95898916 12.78475317 20.94983876 9.6328125 23.36328125 C6.42572541 26.5780408 4.80453634 30.88789285 3 35 C1.1484375 34.76171875 1.1484375 34.76171875 -1 34 C-2.2734375 32.14453125 -2.2734375 32.14453125 -3.375 29.8125 C-5.04832978 26.51813201 -6.63161645 24.1641657 -9.375 21.6875 C-10.24125 20.800625 -11.1075 19.91375 -12 19 C-11.5939014 14.7069577 -8.95511038 12.95511038 -6 10 C-4.52443646 7.72642761 -3.28492911 5.39262663 -2 3 C-1.34 2.01 -0.68 1.02 0 0 Z " fill="#FFC371" transform="translate(382,131)"/>
<path d="M0 0 C3.08951782 2.75849806 4.90685431 5.55924082 6.84765625 9.19921875 C8.12583749 11.19664774 9.56408795 12.59252827 11.3125 14.1875 C12.199375 15.115625 13.08625 16.04375 14 17 C13.83984375 19.04296875 13.83984375 19.04296875 13 21 C11.54610159 22.12346696 10.09165648 23.24624371 8.6328125 24.36328125 C5.42572541 27.5780408 3.80453634 31.88789285 2 36 C1.01 36 0.02 36 -1 36 C-1.27972656 35.34773438 -1.55945313 34.69546875 -1.84765625 34.0234375 C-4.70963477 27.78414028 -7.4941519 24.10239663 -13 20 C-12.2734375 16.1953125 -12.2734375 16.1953125 -9.8125 14.4375 C-6.14289452 11.25717525 -4.43508539 7.64559141 -2.234375 3.36328125 C-1 1 -1 1 0 0 Z " fill="#FFC372" transform="translate(344,460)"/>
<path d="M0 0 C1.8515625 0.203125 1.8515625 0.203125 4 1 C5.2734375 3.109375 5.2734375 3.109375 6.375 5.75 C8.58090488 10.54664052 10.69734096 12.99814486 15 16 C14.875 17.6875 14.875 17.6875 14 20 C12.54610159 21.12346696 11.09165648 22.24624371 9.6328125 23.36328125 C6.42572541 26.5780408 4.80453634 30.88789285 3 35 C1.12109375 34.734375 1.12109375 34.734375 -1 34 C-2.08984375 32.328125 -2.08984375 32.328125 -2.9375 30.25 C-4.69664768 26.37014069 -6.79850491 23.8644956 -10 21 C-10.66 20.34 -11.32 19.68 -12 19 C-11.9375 17.125 -11.9375 17.125 -11 15 C-10.278125 14.484375 -9.55625 13.96875 -8.8125 13.4375 C-4.56716337 9.75820826 -2.49442712 4.97171041 0 0 Z " fill="#FFC372" transform="translate(210,456)"/>
<path d="M0 0 C3 1 3 1 4.17578125 3.109375 C4.55089844 3.98078125 4.92601563 4.8521875 5.3125 5.75 C7.57283583 10.56609549 9.79535312 12.84651484 14 16 C14.33 16.99 14.66 17.98 15 19 C13.96875 19.763125 12.9375 20.52625 11.875 21.3125 C7.12612643 25.32631371 4.68013447 30.48265358 2 36 C-0.69303969 34.98300822 -1.81264461 34.32471104 -3.2734375 31.79296875 C-3.63695313 30.93316406 -4.00046875 30.07335937 -4.375 29.1875 C-6.58354658 24.43327667 -8.726883 21.98124442 -13 19 C-11.94622526 16.31766431 -11.15041879 15.10445749 -8.75 13.4375 C-4.57089236 9.73329095 -2.48103893 4.94502604 0 0 Z " fill="#FFC372" transform="translate(71,58)"/>
<path d="M0 0 C2.375 1.5625 2.375 1.5625 4 4 C4.56645882 7.96521177 4.57590314 10.07855498 2.4375 13.5 C0 15 0 15 -3.5625 15 C-7 14 -7 14 -8.9375 12.3125 C-10.33817538 9.26397123 -10.4842732 7.32073048 -10 4 C-7.21921757 -0.06422047 -4.81255755 -0.80209293 0 0 Z " fill="#FFDAAD" transform="translate(386,291)"/>
<path d="M0 0 C0.33 0 0.66 0 1 0 C1.64735685 4.33310714 2.29261107 8.66652493 2.9375 13 C3.11990234 14.22074219 3.30230469 15.44148438 3.49023438 16.69921875 C3.84363124 19.07661581 4.19136437 21.45486285 4.53295898 23.83398438 C4.80879606 25.70385118 5.10287061 27.57143965 5.43774414 29.43164062 C6.23979751 34.1880964 5.58896005 37.15052476 3.5625 41.5 C3.08941406 42.5415625 2.61632812 43.583125 2.12890625 44.65625 C1.75636719 45.4296875 1.38382812 46.203125 1 47 C0.67 47 0.34 47 0 47 C0 31.49 0 15.98 0 0 Z " fill="#F0A449" transform="translate(259,19)"/>
<path d="M0 0 C0.66 0.33 1.32 0.66 2 1 C1.34 1.66 0.68 2.32 0 3 C6.27 3.33 12.54 3.66 19 4 C19 4.33 19 4.66 19 5 C6.625 5.495 6.625 5.495 -6 6 C-6 5.34 -6 4.68 -6 4 C-4.03852126 2.61061923 -2.03833424 1.2739589 0 0 Z " fill="#F5AE51" transform="translate(96,419)"/>
</svg>
