<?xml version="1.0" encoding="UTF-8"?>
<svg version="1.1" xmlns="http://www.w3.org/2000/svg" width="512" height="512">
<path d="M0 0 C25.61522476 -0.97666368 48.87014826 9.65922699 67.43701172 26.75732422 C69.47939152 28.84019013 71.05128775 31.19629152 72.69140625 33.6015625 C76.35341214 38.48168332 79.90639523 39.452502 85.75854492 40.70458984 C102.29692135 44.30741154 115.6354272 54.17196734 124.81640625 68.2265625 C130.50479011 77.28703754 133.49046371 86.96474515 136.015625 97.3046875 C136.29614212 98.43050232 136.57665924 99.55631714 136.86567688 100.71624756 C137.45291571 103.07856342 138.03678792 105.44171852 138.61743164 107.80566406 C139.50516455 111.41918441 140.40303592 115.0300672 141.30273438 118.640625 C141.8742867 120.94516656 142.44527012 123.24984929 143.015625 125.5546875 C143.28227463 126.62978577 143.54892426 127.70488403 143.82365417 128.81256104 C148.73130306 148.82450397 148.53279645 167.7436507 138.5703125 186.3203125 C128.89996261 201.99963258 114.59048917 212.51163419 96.81640625 217.1640625 C96.790625 218.25460938 96.76484375 219.34515625 96.73828125 220.46875 C96.2281049 235.70749577 94.66428332 257.22794159 84.60845947 269.65710449 C79.26714259 276.459305 79.77482446 284.75227264 79.453125 293 C79.37251852 294.64622389 79.28994957 296.29235274 79.20552063 297.93838501 C78.98954653 302.25736943 78.80141182 306.57713683 78.61883545 310.89764404 C78.42854118 315.27117843 78.20951246 319.64326781 77.99414062 324.015625 C77.55663746 333.06352628 77.1303298 342.11092559 76.81640625 351.1640625 C76.77784012 352.17449112 76.73927399 353.18491974 76.69953918 354.22596741 C76.58943318 359.11429201 76.99505704 362.84826308 78.9296875 367.42578125 C79.38682129 368.5245459 79.84395508 369.62331055 80.31494141 370.75537109 C80.8104248 371.88023926 81.3059082 373.00510742 81.81640625 374.1640625 C82.31317871 375.2979541 82.80995117 376.4318457 83.32177734 377.60009766 C85.38812043 382.24789317 87.49854464 386.87478865 89.61914062 391.49804688 C95.52025159 404.55471882 98.19056429 415.50472333 93.078125 429.37109375 C88.72200828 439.01389081 80.6965671 446.41641528 70.81640625 450.1640625 C59.95684463 453.56341766 50.06447158 452.12943424 39.703125 447.80859375 C32.68484177 443.81035662 28.05049128 438.27183922 23.37890625 431.7890625 C22.83814453 431.05300781 22.29738281 430.31695312 21.74023438 429.55859375 C20.42470431 427.76574747 19.1170525 425.96771934 17.81640625 424.1640625 C17.07197266 425.44990234 17.07197266 425.44990234 16.3125 426.76171875 C9.08642144 439.03062422 2.15263888 446.36206448 -11.72265625 451.015625 C-22.8862104 453.74287764 -34.28072252 451.85381068 -44.18359375 446.1640625 C-52.35222569 440.20223212 -58.78983372 432.76933745 -62.18359375 423.1640625 C-62.30859375 420.3515625 -62.30859375 420.3515625 -62.18359375 418.1640625 C-65.15359375 418.1640625 -68.12359375 418.1640625 -71.18359375 418.1640625 C-71.24546875 419.2778125 -71.30734375 420.3915625 -71.37109375 421.5390625 C-72.41887309 429.76121979 -77.04270442 437.65750679 -83.18359375 443.1640625 C-93.54935656 451.02646578 -104.98540948 452.63725285 -117.69140625 452.4921875 C-118.85574188 452.49031433 -120.02007751 452.48844116 -121.21969604 452.48651123 C-123.67530193 452.47982775 -126.13089784 452.46598791 -128.58642578 452.4453125 C-132.25043237 452.4145508 -135.91400272 452.4043641 -139.578125 452.3984375 C-146.78107831 452.37583936 -153.98174445 452.29058595 -161.18359375 452.1640625 C-162.38779968 452.1430246 -163.59200562 452.12198669 -164.83270264 452.10031128 C-168.35665973 452.02907914 -171.87918737 451.93511415 -175.40234375 451.83203125 C-176.45229523 451.81001648 -177.5022467 451.78800171 -178.58401489 451.76531982 C-188.09548693 451.43550681 -197.14573039 449.18142756 -205.1796875 443.8359375 C-208.44531529 442.74102916 -210.72774254 444.13839884 -213.87109375 445.3515625 C-239.67759202 454.64494577 -267.81515682 453.11061778 -292.69140625 441.53125 C-299.42932679 438.04504053 -305.41141667 434.07259945 -311.18359375 429.1640625 C-311.90546875 428.57496094 -312.62734375 427.98585938 -313.37109375 427.37890625 C-322.49068544 419.75130659 -322.49068544 419.75130659 -323.55859375 414.22265625 C-323.86655366 409.15094154 -322.6028771 406.04541116 -319.18359375 402.1640625 C-315.40190093 400.23658755 -312.37892925 399.94499202 -308.16796875 400.0390625 C-307.00740967 400.05614258 -305.84685059 400.07322266 -304.65112305 400.09082031 C-303.42433838 400.11499023 -302.19755371 400.13916016 -300.93359375 400.1640625 C-275.92335764 400.39171879 -275.92335764 400.39171879 -252.18359375 393.1640625 C-252.85281807 389.36677846 -253.86389571 385.73136732 -254.94848633 382.03833008 C-267.89053569 337.55620107 -255.41537579 294.10699919 -233.72167969 254.49462891 C-226.89805194 242.34575764 -226.89805194 242.34575764 -223.40625 237.90234375 C-221.89593811 236.10929659 -221.89593811 236.10929659 -222.18359375 233.1640625 C-222.98796875 233.380625 -222.98796875 233.380625 -223.80859375 233.6015625 C-237.17493388 236.76727464 -250.11749755 236.56228913 -262.08984375 229.43359375 C-271.59012621 223.03622612 -278.08499451 213.95019799 -280.76953125 202.7109375 C-282.57275566 191.61940624 -280.41264784 180.81301372 -274.37109375 171.2890625 C-273.34039098 169.89006891 -272.27846338 168.51342967 -271.18359375 167.1640625 C-270.68214844 166.53886719 -270.18070313 165.91367188 -269.6640625 165.26953125 C-264.65242814 159.67259653 -256.96369356 154.4310708 -249.31640625 154.00390625 C-248.61257812 154.05675781 -247.90875 154.10960937 -247.18359375 154.1640625 C-246.81234375 152.4315625 -246.81234375 152.4315625 -246.43359375 150.6640625 C-243.82565298 140.55163909 -238.09670695 132.2989877 -229.46875 126.265625 C-218.79595631 120.1283944 -207.66329867 118.41863566 -195.62109375 121.2890625 C-185.71482558 124.31322996 -176.94665994 130.01974888 -171.4921875 138.92578125 C-164.43042154 152.2155143 -164.05822254 163.72526326 -168.18359375 178.1640625 C-162.24359375 184.1040625 -156.30359375 190.0440625 -150.18359375 196.1640625 C-148.79020737 191.98390336 -147.56401863 187.9081138 -146.43359375 183.6640625 C-144.32636083 176.17700008 -141.40881549 169.23804885 -138.18359375 162.1640625 C-138.7559375 161.92945313 -139.32828125 161.69484375 -139.91796875 161.453125 C-150.13904929 155.63768263 -157.32844587 140.25153331 -160.34765625 129.26171875 C-164.3338995 111.21186029 -162.43389229 92.31943603 -152.46875 76.4296875 C-147.99500852 70.09874864 -142.94857533 64.22406029 -137.90234375 58.34765625 C-135.46928743 55.51164627 -133.09914284 52.62950893 -130.74609375 49.7265625 C-127.19425471 45.36836 -123.58343064 41.06519283 -119.93359375 36.7890625 C-119.43802979 36.20584229 -118.94246582 35.62262207 -118.43188477 35.02172852 C-115.48463105 31.58268746 -112.43179291 28.32635887 -109.18359375 25.1640625 C-108.58417969 24.56722656 -107.98476562 23.97039063 -107.3671875 23.35546875 C-93.8453192 10.74110839 -76.98944188 7.51953382 -59.1640625 7.828125 C-55.79568413 7.96507746 -52.75184991 8.42984651 -49.484375 9.25 C-42.48200199 10.94285601 -36.81160091 8.83692548 -30.37109375 6.2265625 C-24.36250553 3.88896908 -18.60535317 2.0078773 -12.18359375 1.1640625 C-10.95769531 0.99970703 -10.95769531 0.99970703 -9.70703125 0.83203125 C-6.47603596 0.4569157 -3.24260999 0.2436308 0 0 Z " fill="#303238" transform="translate(344.18359375,29.8359375)"/>
<path d="M0 0 C19.88978884 -0.56338072 38.41986434 5.49486835 53.109375 19.16015625 C54.14771484 20.06314453 54.14771484 20.06314453 55.20703125 20.984375 C61.20942035 26.50102163 65.10563019 33.11785511 69.109375 40.16015625 C69.521875 40.8253125 69.934375 41.49046875 70.359375 42.17578125 C77.59420367 54.72368722 77.75148787 70.57168522 77.9375 84.6171875 C77.97534955 86.47116069 78.01469544 88.32510385 78.05541992 90.17901611 C78.15846007 95.09700948 78.23821091 100.01510335 78.31196594 104.93361282 C78.37557322 109.01100427 78.45190961 113.08812092 78.52788925 117.16529751 C78.98518393 141.8486422 79.29834011 166.5350342 79.359375 191.22265625 C79.36473267 192.45529205 79.37009033 193.68792786 79.37561035 194.95791626 C79.38711758 198.39134091 79.38404196 201.82438757 79.375 205.2578125 C79.37894775 206.2297052 79.38289551 207.2015979 79.38696289 208.20294189 C79.24420474 229.14899288 69.725154 248.46056584 55.109375 263.16015625 C46.85604221 270.91264803 37.57841215 276.00997013 27.109375 280.16015625 C26.05878906 280.59457031 25.00820313 281.02898437 23.92578125 281.4765625 C4.99665128 288.12608551 -16.0781486 284.19610323 -34.890625 279.16015625 C-33.56503713 270.44588281 -31.75658301 261.91697141 -29.703125 253.34765625 C-29.08231913 250.72419199 -28.46236932 248.10054162 -27.84375 245.4765625 C-27.6850795 244.80490051 -27.526409 244.13323853 -27.3629303 243.44122314 C-25.50714518 235.56778572 -23.72831068 227.67708575 -21.953125 219.78515625 C-21.79792389 219.09577972 -21.64272278 218.4064032 -21.4828186 217.69613647 C-20.61726149 213.85114418 -19.75318567 210.0058218 -18.890625 206.16015625 C-17.57650635 205.87446777 -17.57650635 205.87446777 -16.23583984 205.58300781 C-15.07777832 205.32487305 -13.9197168 205.06673828 -12.7265625 204.80078125 C-11.5823584 204.54844727 -10.4381543 204.29611328 -9.25927734 204.03613281 C-1.06995788 201.90660112 6.02355901 198.03221006 11.109375 191.16015625 C15.78625266 183.09730381 19.40591953 175.61903794 18.109375 166.16015625 C15.61828524 158.92311101 12.07994625 153.5981931 5.0546875 150.15234375 C-1.37445822 147.54371274 -8.15553183 146.01138055 -14.890625 144.41015625 C-15.80392578 144.18714844 -16.71722656 143.96414062 -17.65820312 143.734375 C-27.19152447 141.56740131 -35.914502 140.64092685 -44.66015625 145.53515625 C-49.72385016 149.22429227 -52.9707673 154.23700783 -54.890625 160.16015625 C-56.15966215 171.48798263 -54.65264891 181.71032639 -47.73046875 191.0859375 C-43.49814946 196.01413328 -43.49814946 196.01413328 -38.109375 199.49609375 C-37.3771875 200.04523438 -36.645 200.594375 -35.890625 201.16015625 C-35.4756183 206.35752399 -36.36085528 211.02225348 -37.6484375 216.0234375 C-37.83215912 216.76523758 -38.01588074 217.50703766 -38.20516968 218.27131653 C-38.80148003 220.67361639 -39.40859995 223.07304395 -40.015625 225.47265625 C-40.84444337 228.79866276 -41.6679471 232.12598153 -42.4921875 235.453125 C-42.69761169 236.27876953 -42.90303589 237.10441406 -43.11468506 237.95507812 C-45.22526803 246.45542424 -47.19013549 254.98665023 -49.12548828 263.52856445 C-49.3470459 264.50269287 -49.56860352 265.47682129 -49.796875 266.48046875 C-49.98572266 267.31852051 -50.17457031 268.15657227 -50.36914062 269.02001953 C-50.890625 271.16015625 -50.890625 271.16015625 -51.890625 274.16015625 C-71.12637726 271.95136864 -89.45049743 266.65378807 -103.890625 253.16015625 C-104.79167969 252.3609375 -105.69273437 251.56171875 -106.62109375 250.73828125 C-121.49941947 236.86552513 -130.2659636 217.64792959 -131.0390625 197.2421875 C-131.10318418 193.20912249 -131.01779967 189.19159327 -130.890625 185.16015625 C-130.87257812 184.33644531 -130.85453125 183.51273438 -130.8359375 182.6640625 C-129.87848621 167.76724688 -121.4686709 153.80790819 -114.703125 140.91015625 C-113.79784485 139.16457209 -112.8935438 137.41847979 -111.99023438 135.671875 C-107.20048355 126.4271955 -102.34378643 117.21771783 -97.48808289 108.00756836 C-93.80068867 101.00603041 -90.16982915 93.976224 -86.55612183 86.93643188 C-84.73689421 83.39364685 -82.91319327 79.85316491 -81.08984375 76.3125 C-80.72997879 75.61364182 -80.37011383 74.91478363 -79.99934387 74.19474792 C-70.64135591 56.02403637 -70.64135591 56.02403637 -66.125 47.49609375 C-65.34078617 46.01204353 -64.56154962 44.52534417 -63.7890625 43.03515625 C-53.66161901 23.55335655 -37.69535137 9.08339242 -16.578125 2.28515625 C-11.05397999 0.82341009 -5.68854232 0.31517599 0 0 Z " fill="#FEBF63" transform="translate(342.890625,47.83984375)"/>
<path d="M0 0 C4.1425161 1.63296778 6.91463712 4.6417474 9.98577881 7.74526978 C10.879078 8.63600569 10.879078 8.63600569 11.79042363 9.54473627 C13.78661691 11.53763282 15.77557352 13.5375982 17.76464844 15.53759766 C19.19336215 16.96687544 20.62251626 18.39571311 22.05207825 19.82414246 C25.93430819 23.70579773 29.81033361 27.59359594 33.68529415 31.48250628 C37.73496938 35.54466988 41.79029548 39.60118397 45.84503174 43.65829468 C53.52355179 51.34303506 61.19695865 59.03286024 68.86855245 66.72451437 C77.60214374 75.48044743 86.34140343 84.23071345 95.08114958 92.98050237 C113.06042487 110.98069219 131.03255144 128.9880055 149 147 C148.01 149.97 148.01 149.97 147 153 C142.5538631 153.53432803 138.42664374 153.77307415 134 153 C131.16757871 150.45082084 129.77111511 147.33480232 128 144 C122.57230976 136.92586388 114.70003509 132.76623949 106 131 C104.60304666 131.02731479 103.20647269 131.10587633 101.81445312 131.22631836 C92.95549198 131.65426795 86.28049659 131.25982332 79.43432617 125.19741821 C75.97492469 121.77565287 72.71939527 118.20920264 69.5 114.5625 C67.4741676 112.36917372 65.43463974 110.18928142 63.39294434 108.01072693 C62.13815345 106.66129737 60.89535308 105.30058771 59.66662598 103.92738342 C59.11083862 103.31011887 58.55505127 102.69285431 57.98242188 102.05688477 C57.26016418 101.2420034 57.26016418 101.2420034 56.52331543 100.41065979 C54.77688042 98.79338106 53.21000796 97.87873886 51 97 C47.96463635 97.18583859 45.77737753 97.55948607 43.125 99.0625 C41.21460903 102.35261778 41.11880458 105.40058939 42 109 C43.1461578 110.79916133 43.1461578 110.79916133 44.76953125 112.4765625 C45.40503906 113.16935303 46.04054688 113.86214355 46.6953125 114.57592773 C47.45585937 115.37587158 48.21640625 116.17581543 49 117 C49.43981201 117.4642337 49.87962402 117.92846741 50.33276367 118.4067688 C53.40730351 121.64242305 56.52108735 124.83673847 59.65991211 128.01000977 C60.76169013 129.12839014 61.85806931 130.25211499 62.94897461 131.38110352 C74.15715856 143.05560929 74.15715856 143.05560929 89.2890625 147.56640625 C91.06757068 147.58857241 92.84652522 147.58720104 94.625 147.5625 C102.81962084 147.4853043 108.59191611 148.45544001 115.09375 153.68359375 C119.28078045 158.90575117 119.73363896 163.39940266 119.3828125 170.01171875 C118.56125784 176.424875 115.71385324 179.62574964 111.01171875 183.703125 C106.09410923 186.87331211 101.19302238 187.2599968 95.45678711 187.30639648 C94.72576782 187.31472 93.99474854 187.32304352 93.24157715 187.33161926 C90.83677755 187.35561161 88.43225018 187.36448065 86.02734375 187.37109375 C84.34070257 187.38007243 82.65406215 187.38919448 80.96742249 187.39845276 C77.43277052 187.41491909 73.89821295 187.42263783 70.36352539 187.42553711 C65.86712787 187.43090032 61.37163753 187.4685043 56.87549496 187.51428127 C53.38956089 187.54425623 49.90383919 187.55126516 46.41778755 187.55226326 C44.76221145 187.55642976 43.10663258 187.5687179 41.45118523 187.58978081 C21.01562935 187.82897199 6.68267309 180.02674612 -8 166 C-8.62648438 165.44828125 -9.25296875 164.8965625 -9.8984375 164.328125 C-24.26238502 151.199087 -33.01993998 128.03939662 -34.19091797 108.87548828 C-34.61352763 96.8793361 -34.71309373 84.74646261 -32 73 C-31.731875 71.77023437 -31.46375 70.54046875 -31.1875 69.2734375 C-25.47189245 44.17834812 -14.40330466 21.24157087 0 0 Z " fill="#FEA959" transform="translate(136,277)"/>
<path d="M0 0 C6.47958213 3.68421568 9.45385869 8.15023304 11.96484375 15.1171875 C13.19994824 21.38853703 11.35669004 26.04738018 8.8671875 31.76171875 C7.60767692 35.04953207 7.48818956 37.64442127 7.96484375 41.1171875 C10.43935033 46.45485732 14.85830311 50.08332008 19.0625 54.05859375 C20.68544852 55.62701059 22.30715504 57.19671343 23.92773438 58.76757812 C26.47287448 61.22641736 29.02422022 63.67673959 31.59790039 66.10571289 C34.08884318 68.46261821 36.54598729 70.85083465 39 73.24609375 C39.76772232 73.95592911 40.53544464 74.66576447 41.32643127 75.39710999 C46.37400853 80.39349035 47.9738187 84.33079311 48.68757629 91.39932251 C50.77127092 111.82436894 66.30746237 132.15105131 81.32421875 145.06640625 C90.96375108 152.55272944 104.54202133 161.36198907 117.04467773 162.66650391 C134.23260109 164.78354711 144.52270752 178.13384977 155.75085449 190.05847168 C159.05818094 193.55550065 162.41420562 197.00572536 165.76528263 200.46075916 C168.36663216 203.14388025 170.95946108 205.83361029 173.52818298 208.54801941 C174.2352816 209.28983208 174.2352816 209.28983208 174.95666504 210.04663086 C176.22503729 211.37784576 177.48843529 212.71379516 178.75144958 214.0500946 C180.80987522 215.97246211 182.33427009 217.15915859 184.96484375 218.1171875 C188.86320556 217.89652551 191.63781374 217.27749633 195.15234375 215.5546875 C201.01271313 212.91357933 207.69395167 213.08499855 213.75 214.99609375 C220.25194371 217.96757029 225.02332167 221.99901091 228.09375 228.51171875 C230.24208548 234.93745762 229.7135674 241.30787811 226.90234375 247.4296875 C223.73561436 253.05644678 219.92525026 256.79445267 214.02734375 259.4296875 C211.56149403 259.9832456 209.40044214 260.24256402 206.90234375 260.4296875 C202.97546812 260.85223539 202.97546812 260.85223539 200.15234375 262.9296875 C197.45386138 266.86176181 196.84290898 270.42764275 195.83203125 275.0390625 C194.10890819 281.15537318 190.83599998 285.62789989 185.90234375 289.5546875 C184.93296875 290.0703125 183.96359375 290.5859375 182.96484375 291.1171875 C182.22234375 291.5296875 181.47984375 291.9421875 180.71484375 292.3671875 C173.19172447 294.4189473 167.0108293 293.44584927 160.23046875 289.671875 C154.93301379 286.03672487 151.17273615 281.5190172 149.96484375 275.1171875 C149.33271684 268.13416059 149.52576878 262.95830281 153.05859375 256.8515625 C154.49435271 254.1038169 154.490057 252.13716367 153.96484375 249.1171875 C150.99333811 244.04475558 147.25001948 240.1195739 143.09484863 235.9932251 C142.40413285 235.29938933 141.71341706 234.60555357 141.0017705 233.89069247 C138.69275904 231.57372208 136.37668684 229.26394436 134.06054688 226.95410156 C132.40102844 225.29187239 130.74193564 223.62921819 129.08323669 221.96617126 C124.58182667 217.45564631 120.0741165 212.95146731 115.56497765 208.44867039 C111.3266933 204.21493574 107.09242213 199.97719211 102.85787851 195.73971686 C93.96226419 186.83840406 85.06053786 177.94322391 76.15669948 169.05013856 C68.51683939 161.41921941 60.8822464 153.78306355 53.25146484 146.14306641 C44.38655722 137.26745776 35.51841689 128.39509986 26.64508581 119.5279119 C21.94916529 114.83515419 17.25465367 110.14100454 12.56361389 105.443367 C8.15556163 101.02954818 3.74266615 96.62063013 -0.6740551 92.21548653 C-2.29635635 90.59583522 -3.91694798 88.97446947 -5.53572273 87.35129356 C-7.74095348 85.14061947 -9.95221671 82.93616382 -12.16516113 80.73321533 C-12.80835155 80.08556347 -13.45154197 79.43791161 -14.114223 78.77063394 C-14.70841425 78.18165818 -15.3026055 77.59268242 -15.91480255 76.98585892 C-16.42449727 76.47648891 -16.93419198 75.9671189 -17.45933199 75.44231343 C-20.28277589 73.06805202 -22.55674056 72.1734717 -26.22265625 71.7421875 C-29.74821809 72.08896407 -31.14806775 72.55863895 -34.16015625 74.1171875 C-39.98594401 76.89564012 -45.70277476 77.03782451 -52.03515625 76.1171875 C-58.90721425 73.52499869 -62.91046204 68.34086147 -66.84765625 62.3671875 C-69.20027635 55.92843775 -68.77964515 49.28594936 -66.08203125 43 C-63.14218052 37.71265652 -59.42832374 33.87973085 -54.03515625 31.1171875 C-50.73815529 30.28183964 -47.43816412 29.67334733 -44.09375 29.05859375 C-40.5664261 27.97291679 -39.21805449 27.07578534 -37.03515625 24.1171875 C-35.91191243 20.90775817 -35.91191243 20.90775817 -35.16015625 17.3671875 C-33.18433874 10.04906342 -31.07066114 4.95879735 -24.77734375 0.52734375 C-16.31924554 -4.25850806 -8.63487369 -4.40090223 0 0 Z " fill="#CFE6EE" transform="translate(149.03515625,170.8828125)"/>
<path d="M0 0 C0.66 0 1.32 0 2 0 C2.17414213 17.27876888 2.17414213 17.27876888 1.63818359 25.50244141 C1.49170685 27.81863724 1.3868845 30.13454948 1.28515625 32.453125 C1.15271497 35.43887235 0.96386877 38.39981379 0.69482422 41.37695312 C-1.38777761 64.98605616 4.4899371 81.74698923 15.30419922 102.63549805 C18.77460041 109.52084195 20.64554654 115.61457497 18.3125 123.25 C15.71895766 128.95579314 12.13585268 132.22019172 6.6875 135.3125 C0.38489128 136.92479525 -5.2957158 136.67850228 -11.0234375 133.4609375 C-17.20217315 128.89404593 -21.71646874 122.29143653 -26 116 C-24.88933477 113.00120389 -23.83091712 111.86934505 -21.25 109.875 C-14.43784431 104.42860657 -10.39078611 95.46809284 -9 87 C-7.55715661 73.60025998 -9.70868473 64.60326855 -17.75390625 53.6015625 C-24.44580987 46.0569109 -35.24453316 40.69893289 -45.25390625 39.796875 C-50.34179904 39.69356753 -53.81875631 40.32337724 -58.54296875 42.25 C-61.71655273 43.07324219 -61.71655273 43.07324219 -65 43 C-70.08159712 39.86278342 -73.79216546 35.67189003 -77.75 31.25 C-78.84805223 30.08522247 -79.94958984 28.92372023 -81.0546875 27.765625 C-89 19.36135986 -89 19.36135986 -89 18 C-84.26724091 18.46551729 -79.70799426 19.04854537 -75.0625 20.0625 C-50.7884289 24.47903238 -26.30735443 17.95802411 -5.9375 4.5625 C-2.82979988 2.45013846 -2.82979988 2.45013846 0 0 Z " fill="#FBA859" transform="translate(403,328)"/>
<path d="M0 0 C1.27230469 0.00902344 2.54460937 0.01804688 3.85546875 0.02734375 C5.31919922 0.04474609 5.31919922 0.04474609 6.8125 0.0625 C6.4721875 0.51238281 6.131875 0.96226563 5.78125 1.42578125 C4.74760606 2.79755872 3.71962739 4.17361426 2.69580078 5.55273438 C1.5070204 7.13695299 0.29990556 8.70772627 -0.93212891 10.25854492 C-7.57063896 18.87219937 -12.21530849 28.36997201 -17.0625 38.0625 C-18.32420298 40.56399294 -19.58866527 43.06407684 -20.85342407 45.56402588 C-21.69689993 47.23158688 -22.53932543 48.89967957 -23.38070679 50.56829834 C-27.1151122 57.96145011 -30.96817091 65.28913653 -34.83935547 72.61132812 C-38.20947189 78.98815902 -41.50922901 85.40084257 -44.8125 91.8125 C-49.86334063 101.60268204 -54.94857513 111.37132588 -60.1875 121.0625 C-69.34426322 113.8187096 -73.94706239 104.52900935 -76.1875 93.0625 C-77.62874827 78.13528575 -74.21900145 66.14012916 -65.1875 54.0625 C-63.0208115 51.50366861 -60.78629765 49.03439444 -58.5 46.58203125 C-55.37137342 43.17330804 -52.48988786 39.58607662 -49.578125 35.9921875 C-46.02633498 31.63950365 -42.39884337 27.3529165 -38.75390625 23.078125 C-37.22889421 21.28617783 -35.71244652 19.48679162 -34.21484375 17.671875 C-25.54097924 7.31856065 -13.77091211 -0.12633864 0 0 Z " fill="#C78738" transform="translate(276.1875,55.9375)"/>
<path d="M0 0 C12.39988617 4.86850194 20.66095276 13.552124 26.19116211 25.49291992 C29.83000008 34.05156593 31.86898071 43.22340627 34.08227539 52.22924805 C34.93329939 55.67051409 35.82522354 59.09936699 36.72070312 62.52929688 C41.69227043 82.10848417 44.42999162 99.86482387 34.25 118.25 C28.96132333 126.5003356 21.97868599 132.93285227 13 137 C11.00476052 137.36073609 9.00486374 137.69729139 7 138 C6.75535181 129.45436049 6.51279489 120.90866489 6.27234173 112.36290646 C6.15611344 108.2369362 6.03895705 104.11099596 5.91986084 99.98510742 C4.97876716 67.37043159 4.97876716 67.37043159 4.78515625 51.31640625 C4.77031693 50.23826157 4.7554776 49.16011688 4.7401886 48.04930115 C4.673387 43.18879445 4.62235489 38.32944239 4.60571289 33.46850586 C4.51339271 23.89030108 3.5421621 15.30206373 0.85302734 6.08984375 C0 3 0 3 0 0 Z " fill="#C68638" transform="translate(432,90)"/>
<path d="M0 0 C7.53555498 4.2250803 12.00057742 10.24491614 14.5625 18.5 C15.16686703 24.42855273 14.79352487 29.92243782 12.5625 35.5 C9.80585043 38.77352136 7.98178012 40.34573042 3.6875 40.8125 C0.5625 40.5 0.5625 40.5 -1.75 38.625 C-5.42415561 33.99828553 -4.38241561 29.59497518 -4.1796875 23.8828125 C-4.45483604 20.27253013 -4.81633565 18.94405865 -7.4375 16.5 C-10.0938711 15.43300575 -12.59301783 15.29403945 -15.4375 15.5 C-18.44681158 16.65555014 -18.44681158 16.65555014 -20.4375 19.5 C-21.31614045 22.03645261 -21.99455476 24.537527 -22.56640625 27.16015625 C-23.64650363 30.06140437 -24.78117013 30.96675077 -27.4375 32.5 C-30.875 33.0625 -30.875 33.0625 -34.4375 32.5 C-38.0204304 29.37446497 -39.23043473 27.87180742 -39.9375 23.1875 C-38.85169887 15.17971663 -36.54821763 8.98327787 -30.4375 3.5 C-21.01256599 -3.39019797 -10.89780566 -5.02661286 0 0 Z " fill="#333338" transform="translate(312.4375,118.5)"/>
<path d="M0 0 C5.08369612 3.85659705 8.17810267 8.67156792 10.0625 14.75 C11.02416478 21.77690142 10.72611903 27.96464251 7.328125 34.26171875 C5.74020544 36.12899453 4.34752522 36.88237764 2.0625 37.75 C-2.06684519 37.67626169 -4.1639275 37.48999731 -7.1875 34.59765625 C-9.87892049 30.21809032 -8.68354358 26.79862726 -7.90625 21.90625 C-7.94608425 17.88299085 -9.1409318 16.5465682 -11.9375 13.75 C-14.82611709 12.30569145 -16.73397701 12.37311494 -19.9375 12.75 C-24.51103249 16.18014937 -25.56092287 19.34201842 -26.9375 24.75 C-28.0625 27.125 -28.0625 27.125 -29.9375 28.75 C-32.6500743 29.6581227 -35.08457111 30.00025692 -37.9375 29.75 C-40.79743478 27.98535939 -42.43532849 26.75434303 -43.9375 23.75 C-44.70761718 16.35687503 -42.03675934 10.30259273 -38.3125 4 C-26.97156252 -6.74404604 -13.13351849 -8.47323773 0 0 Z " fill="#333338" transform="translate(394.9375,139.25)"/>
<path d="M0 0 C1.859375 2.22265625 1.859375 2.22265625 3.75 5.0625 C7.37832273 10.28673912 11.34633071 14.68050377 16 19 C5.31982149 26.12011901 -14.31780783 24.18951311 -26.5 21.8125 C-36.71932746 19.24567362 -46.34545911 15.05051974 -55 9 C-55 8.67 -55 8.34 -55 8 C-53.71609375 7.97421875 -52.4321875 7.9484375 -51.109375 7.921875 C-35.9024394 7.48556887 -19.74577446 6.49561274 -5.875 -0.36328125 C-3.39892674 -1.20411446 -2.37718318 -1.10436069 0 0 Z " fill="#AE6636" transform="translate(104,440)"/>
<path d="M0 0 C4.04269194 0.72772509 7.97612738 1.73212565 11.9375 2.8125 C12.96423828 3.07353516 13.99097656 3.33457031 15.04882812 3.60351562 C23.60090944 5.87472411 23.60090944 5.87472411 26 9 C26.85315242 13.73973567 25.92496169 16.6767323 23.5 20.6875 C19.52341056 26.1067591 15.76352618 28.41981111 9.13671875 29.44140625 C2.59978052 29.83179519 -1.95141117 28.87911651 -7.15234375 24.8203125 C-12.05178875 19.99337515 -13.22389736 15.49813799 -13.4375 8.6875 C-13.43094282 3.56633868 -13.43094282 3.56633868 -11.75048828 1.35791016 C-8.34139919 -1.28663008 -4.10252003 -0.39985439 0 0 Z " fill="#6C6057" transform="translate(318,207)"/>
</svg>
